<?xml version="1.0" encoding="UTF-8" standalone="no"?>
<!-- Created with Inkscape (http://www.inkscape.org/) -->

<svg
   width="300mm"
   height="297mm"
   viewBox="0 0 300 297"
   version="1.1"
   id="svg1"
   inkscape:version="1.3.2 (091e20e, 2023-11-25, custom)"
   sodipodi:docname="Support v1 Conception.svg"
   xmlns:inkscape="http://www.inkscape.org/namespaces/inkscape"
   xmlns:sodipodi="http://sodipodi.sourceforge.net/DTD/sodipodi-0.dtd"
   xmlns="http://www.w3.org/2000/svg"
   xmlns:svg="http://www.w3.org/2000/svg">
  <sodipodi:namedview
     id="namedview1"
     pagecolor="#ffffff"
     bordercolor="#000000"
     borderopacity="0.25"
     inkscape:showpageshadow="2"
     inkscape:pageopacity="0.0"
     inkscape:pagecheckerboard="0"
     inkscape:deskcolor="#d1d1d1"
     inkscape:document-units="mm"
     inkscape:zoom="1.0449706"
     inkscape:cx="984.23822"
     inkscape:cy="445.94556"
     inkscape:window-width="3807"
     inkscape:window-height="1328"
     inkscape:window-x="1288"
     inkscape:window-y="572"
     inkscape:window-maximized="0"
     inkscape:current-layer="layer1" />
  <defs
     id="defs1" />
  <g
     inkscape:label="Calque 1"
     inkscape:groupmode="layer"
     id="layer1">
    <path
       id="rect1"
       style="fill-opacity:0;stroke:#000000;stroke-width:0.2;stroke-linejoin:round"
       d="M 2,5.5 V 2 H 4.65 L 4.9,3.3 4.65,5.5 h 24.7 L 29.1,3.3 29.35,2 H 32 v 3.5 25 h -5 v -10 h -3 v 10 H 10 v -10 H 7 v 10 H 2 Z"
       sodipodi:nodetypes="ccccccccccccccccccccc" />
    <path
       id="rect2"
       style="fill-opacity:0;stroke:#000000;stroke-width:0.2;stroke-linejoin:round"
       d="M 26.5,105 H 7.5 V 95 h -3 V 85 h 25 v 10 h -3 z"
       sodipodi:nodetypes="ccccccccc" />
    <path
       id="rect1-8"
       style="fill-opacity:0;stroke:#000000;stroke-width:0.2;stroke-linejoin:round"
       d="M 2,36 V 32.5 H 4.65 L 4.9,33.8 4.65,36 h 24.7 L 29.1,33.8 29.35,32.5 H 32 V 36 61 H 27 V 51 H 24 V 61 H 10 V 51 H 7 V 61 H 2 Z"
       sodipodi:nodetypes="ccccccccccccccccccccc" />
    <path
       id="rect2-2"
       style="fill-opacity:0;stroke:#000000;stroke-width:0.2;stroke-linejoin:round"
       d="m 7.5,63 h 19 v 10 h 3 V 83 H 4.5 V 73 h 3 z"
       sodipodi:nodetypes="ccccccccc" />
    <path
       id="rect17"
       style="fill:#00e000;fill-opacity:0;stroke:#00e000;stroke-width:0.2;stroke-linejoin:round"
       d="M 0,0 H 34 V 107 H 0 Z"
       sodipodi:nodetypes="ccccc" />
    <path
       id="rect19-8"
       style="fill:#00e000;fill-opacity:0;stroke:#00e000;stroke-width:0.2;stroke-linejoin:round"
       d="M -33,136.14999 H 67 v 0.20002 H -33 Z"
       sodipodi:nodetypes="ccccc" />
  </g>
</svg>
