<?xml version="1.0" encoding="UTF-8" standalone="no"?>
<!-- Created with Inkscape (http://www.inkscape.org/) -->

<svg
   width="350mm"
   height="600mm"
   viewBox="0 0 350 600"
   version="1.1"
   id="svg1"
   xml:space="preserve"
   inkscape:version="1.3.2 (091e20e, 2023-11-25, custom)"
   sodipodi:docname="Module r183 v1 Conception.svg"
   xmlns:inkscape="http://www.inkscape.org/namespaces/inkscape"
   xmlns:sodipodi="http://sodipodi.sourceforge.net/DTD/sodipodi-0.dtd"
   xmlns="http://www.w3.org/2000/svg"
   xmlns:svg="http://www.w3.org/2000/svg"><sodipodi:namedview
     id="namedview1"
     pagecolor="#ffffff"
     bordercolor="#000000"
     borderopacity="0.25"
     inkscape:showpageshadow="2"
     inkscape:pageopacity="0.0"
     inkscape:pagecheckerboard="0"
     inkscape:deskcolor="#d1d1d1"
     inkscape:document-units="mm"
     inkscape:zoom="0.73890575"
     inkscape:cx="1747.8548"
     inkscape:cy="1523.875"
     inkscape:window-width="3807"
     inkscape:window-height="1328"
     inkscape:window-x="1288"
     inkscape:window-y="572"
     inkscape:window-maximized="0"
     inkscape:current-layer="g1" /><defs
     id="defs1"><pattern
       id="EMFhbasepattern"
       patternUnits="userSpaceOnUse"
       width="6"
       height="6"
       x="0"
       y="0" /></defs><g
     inkscape:label="Calque 1"
     inkscape:groupmode="layer"
     id="layer1"><path
       style="fill:none;stroke:#ff8000;stroke-width:0.2;stroke-linejoin:round"
       d="m 25,543 h 5 v -5 h 10.000001 v 5 h 49.000001 v -5 h 9.999999 v 5 H 104 v 8 h -3.5 v -4 h -3 v 4 H 74.500001 v 3 H 54.499999 v -3 H 31.500002 v -4 h -3 v 4 h -3.500001 z"
       id="path23-8-2-3"
       sodipodi:nodetypes="ccccccccccccccccccccccccc" /><path
       style="fill:none;stroke:#ff8000;stroke-width:0.2;stroke-linejoin:round"
       d="m 143,520 v -2 h 4 v -3 h -4 v -20 h -3 v -10 h 3 v -20 h 4 v -3 h -4 v -2 h 8 v 35 h 8 v 5 h 3 v 10 h -3 v 5 h -8 v 5 z"
       id="path23-6-7-0-7-0"
       sodipodi:nodetypes="ccccccccccccccccccccccccc" /><path
       style="fill:none;stroke:#ff8000;stroke-width:0.2;stroke-linejoin:round"
       d="m 203,520 v -2 h 4 v -3 h -4 v -20 h -3 v -10 h 3 v -20 h 4 v -3 h -4 v -2 h 8 v 20 h 8 v 5 h 3 v 10 h -3 v 5 h -8 v 20 z"
       id="path23-6-7-0-7-0-5"
       sodipodi:nodetypes="ccccccccccccccccccccccccc" /><path
       style="fill:none;stroke:#ff8000;stroke-width:0.2;stroke-linejoin:round"
       d="m 173,520 v -8.5 h -3 v -10 h 3 V 493 h 8 v 5 h 8 v 3.5 h 3 v 10 h -3 v 3.5 h -8 v 5 z"
       id="path23-6-7-0-0"
       sodipodi:nodetypes="ccccccccccccccccc" /><g
       id="g1"><path
         id="rect25-6"
         style="fill:none;stroke:#ff0000;stroke-width:0.2;stroke-linejoin:round"
         d="m 30.000004,563 h 10 v 3 h -10 z" /><path
         id="rect26-1"
         style="fill:none;stroke:#ff0000;stroke-width:0.2;stroke-linejoin:round"
         d="m 89,563 h 10 v 3 H 89 Z" /><path
         id="rect36-3"
         style="fill-opacity:0;stroke:#000000;stroke-width:0.2;stroke-linejoin:round"
         d="M 25.000002,560 H 104 v 9 H 25.000002 Z"
         sodipodi:nodetypes="ccccc" /></g><path
       id="path8"
       style="fill:none;fill-opacity:0;stroke:#000000;stroke-width:0.2;stroke-linejoin:round"
       d="M 1012.4003 453.59919 A 183 183 0 0 1 1012.4005 453.59946 " /><path
       id="path25"
       style="fill:none;fill-opacity:0;stroke:#000000;stroke-width:0.2;stroke-linejoin:round"
       d="M 898.87046 400.68947 A 183 183 0 0 1 1000.6897 442.86387 " /><path
       id="path6"
       style="fill:none;fill-opacity:0;stroke:#000000;stroke-width:0.2;stroke-linejoin:round"
       d="m 1002.8546,463.1454 19.0919,-19.09188 C 985.0956,407.20262 935.11505,386.5 883,386.5 v 27 c 44.9542,0 88.06718,17.85798 119.8546,49.6454 z"
       sodipodi:nodetypes="ccccc" /><path
       style="fill:#000000;fill-opacity:0;stroke:#000000;stroke-width:0.2;stroke-linejoin:round"
       d="m 1182.9997,582.99971 196.5,-196.5"
       id="path4-1"
       sodipodi:nodetypes="cc" /><path
       style="fill:#000000;fill-opacity:0;stroke:#000000;stroke-width:0.2;stroke-linejoin:round"
       d="m 1482.9997,582.99971 196.5,-196.5"
       id="path4-1-4"
       sodipodi:nodetypes="cc" /><path
       style="fill:#000000;fill-opacity:0;stroke:#000000;stroke-width:0.2;stroke-linejoin:round"
       d="M 883,583 1079.5,386.5"
       id="path4-1-8"
       sodipodi:nodetypes="cc" /><path
       style="fill:#000000;fill-opacity:0;stroke:#000000;stroke-width:0.2;stroke-linejoin:round"
       d="M 882.99998,386.49999 883,583"
       id="path12"
       sodipodi:nodetypes="cc" /><path
       id="path8-6"
       style="fill:none;fill-opacity:0;stroke:#000000;stroke-width:0.2;stroke-linejoin:round"
       d="m 1312.4,453.5989 a 183,183 0 0 1 2e-4,2.7e-4" /><path
       id="path7-7"
       style="fill:none;fill-opacity:0;stroke:#000000;stroke-width:0.2;stroke-linejoin:round"
       d="M 1182.9997,399.99971 A 183,183 0 0 1 1312.4,453.5989" /><path
       id="path6-9"
       style="fill:none;fill-opacity:0;stroke:#000000;stroke-width:0.2;stroke-linejoin:round"
       d="m 1302.8543,463.14511 19.0919,-19.09188 c -36.8509,-36.8509 -86.8315,-57.55352 -138.9465,-57.55352 v 27 c 44.9542,0 88.0671,17.85798 119.8546,49.6454 z"
       sodipodi:nodetypes="ccccc" /><path
       style="fill:#000000;fill-opacity:0;stroke:#000000;stroke-width:0.2;stroke-linejoin:round"
       d="m 1182.9996,386.4997 10e-5,196.50001"
       id="path12-0"
       sodipodi:nodetypes="cc" /><path
       style="fill:#000000;fill-opacity:0;stroke:#000000;stroke-width:0.2;stroke-linejoin:round"
       d="m 1182.9996,582.99971 17.0401,-195.76"
       id="path16-3"
       sodipodi:nodetypes="cc" /><path
       style="fill:#000000;fill-opacity:0;stroke:#000000;stroke-width:0.2;stroke-linejoin:round"
       d="m 1182.9996,582.99971 126.3701,-150.47"
       id="path20-5"
       sodipodi:nodetypes="cc" /><circle
       style="fill:none;stroke:#ff0000;stroke-width:0.2;stroke-linejoin:round"
       id="path11-8-1"
       cx="898.87"
       cy="400.689"
       r="1" /><circle
       style="fill:none;stroke:#ff0000;stroke-width:0.2;stroke-linejoin:round"
       id="path11-8-1-4"
       cx="1000.69"
       cy="442.86401"
       r="1" /><path
       id="path8-8"
       style="fill:none;fill-opacity:0;stroke:#000000;stroke-width:0.2;stroke-linejoin:round"
       d="m 763.17738,415.12626 a 183,183 0 0 1 2e-4,2.7e-4" /><path
       id="path6-6"
       style="fill:none;fill-opacity:0;stroke:#000000;stroke-width:0.2;stroke-linejoin:round"
       d="m 753.63168,424.67247 19.0919,-19.09188 c -36.8509,-36.8509 -86.83145,-57.55352 -138.9465,-57.55352 v 27 c 44.9542,0 88.06718,17.85798 119.8546,49.6454 z"
       sodipodi:nodetypes="ccccc" /><path
       id="path6-6-9"
       style="fill:none;fill-opacity:0;stroke:#000000;stroke-width:0.2;stroke-linejoin:round"
       d="m 310.63652,166.33074 15.48658,-22.1171 C 283.43296,114.32168 230.61676,102.61261 179.29346,111.6623 l 4.6885,26.5898 c 44.27124,-7.80622 89.83025,2.29397 126.65456,28.07864 z"
       sodipodi:nodetypes="ccccc" /><circle
       style="fill:none;stroke:#ff0000;stroke-width:0.2;stroke-linejoin:round"
       id="path11-8-1-8"
       cx="649.64709"
       cy="362.21606"
       r="1" /><circle
       style="fill:none;stroke:#ff0000;stroke-width:0.2;stroke-linejoin:round"
       id="path11-8-1-4-8"
       cx="751.4671"
       cy="404.39108"
       r="1" /><path
       id="path8-8-8"
       style="fill:none;fill-opacity:0;stroke:#000000;stroke-width:0.2;stroke-linejoin:round"
       d="m 318.37953,155.27197 a 183,183 0 0 1 2.4e-4,2.3e-4" /><circle
       style="fill:none;stroke:#ff0000;stroke-width:0.2;stroke-linejoin:round"
       id="path11-8-1-8-3"
       cx="173.04965"
       cy="155.28886"
       r="1"
       transform="rotate(-10)" /><circle
       style="fill:none;stroke:#ff0000;stroke-width:0.2;stroke-linejoin:round"
       id="path11-8-1-4-8-7"
       cx="274.86966"
       cy="197.46387"
       r="1"
       transform="rotate(-10)" /><path
       id="path8-8-3"
       style="fill:none;fill-opacity:0;stroke:#000000;stroke-width:0.2;stroke-linejoin:round"
       d="m 130.60276,207.7688 a 183,183 0 0 1 2.4e-4,2.3e-4" /><path
       id="path6-6-0"
       style="fill:none;fill-opacity:0;stroke:#000000;stroke-width:0.2;stroke-linejoin:round"
       d="m 122.85976,218.82757 15.48658,-22.1171 C 95.656203,166.81851 42.839993,155.10944 -8.4833071,164.15912 l 4.6885,26.58981 C 40.476433,182.94272 86.035443,193.0429 122.85976,218.82757 Z"
       sodipodi:nodetypes="ccccc" /><circle
       style="fill:none;stroke:#ff0000;stroke-width:0.2;stroke-linejoin:round"
       id="path11-8-1-8-9"
       cx="-20.990334"
       cy="174.38106"
       r="1"
       transform="rotate(-10)" /><circle
       style="fill:none;stroke:#ff0000;stroke-width:0.2;stroke-linejoin:round"
       id="path11-8-1-4-8-3"
       cx="80.829643"
       cy="216.55609"
       r="1"
       transform="rotate(-10)" /><path
       id="rect27-7-4-6"
       style="fill:none;stroke:#ff0000;stroke-width:0.2;stroke-linejoin:round"
       d="m 28.500218,65.00001 h 3 v 20 h -3 z"
       sodipodi:nodetypes="ccccc" /><path
       id="rect23-1"
       style="fill:none;stroke:#ff0000;stroke-width:0.2;stroke-linejoin:round"
       d="m 97.5,185.00001 h 3 v 10 h -3 z" /><path
       id="rect24-2"
       style="fill:none;stroke:#ff0000;stroke-width:0.2;stroke-linejoin:round"
       d="m 28.500218,185.00001 h 3 v 10 h -3 z" /><path
       id="rect25-9"
       style="fill:none;stroke:#ff0000;stroke-width:0.2;stroke-linejoin:round"
       d="m 30.00022,215.00001 h 10 v 3 h -10 z" /><path
       id="rect26-3"
       style="fill:none;stroke:#ff0000;stroke-width:0.2;stroke-linejoin:round"
       d="m 89,215.00001 h 10 v 3 H 89 Z" /><path
       id="rect25-3-8"
       style="fill:none;stroke:#ff0000;stroke-width:0.2;stroke-linejoin:round"
       d="m 30.00022,162.00001 h 10 v 3 h -10 z" /><path
       id="rect26-0-2"
       style="fill:none;stroke:#ff0000;stroke-width:0.2;stroke-linejoin:round"
       d="m 89,162.00001 h 10 v 3 H 89 Z"
       sodipodi:nodetypes="ccccc" /><path
       id="rect27-9-0"
       style="fill:none;stroke:#ff0000;stroke-width:0.2;stroke-linejoin:round"
       d="m 97.5,80.00001 h 3 v 20 h -3 z"
       sodipodi:nodetypes="ccccc" /><path
       id="rect28-0"
       style="fill:none;stroke:#ff0000;stroke-width:0.2;stroke-linejoin:round"
       d="m 54.5,115.00001 h 20 v 3 h -20 z" /><path
       id="rect29-7"
       style="fill:none;stroke:#ff0000;stroke-width:0.2;stroke-linejoin:round"
       d="m 54.5,62.00001 h 20 v 3 h -20 z" /><path
       id="rect32-7-2"
       style="fill-opacity:0;stroke:#ff0000;stroke-width:0.2;stroke-linejoin:round"
       d="m 35,65.999428 v 32.00011 h 59 v -32.00011 z"
       sodipodi:nodetypes="ccccc" /><path
       id="rect32-7-9-0"
       style="fill-opacity:0;stroke:#ff0000;stroke-width:0.2;stroke-linejoin:round"
       d="m 35,166 v 32.00011 H 94 V 166 Z"
       sodipodi:nodetypes="ccccc" /><circle
       style="fill:#000000;fill-opacity:0;stroke:#d0d000;stroke-width:0.2;stroke-linejoin:round;stroke-dasharray:none"
       id="path32-7-2"
       cx="117.20623"
       cy="199.23019"
       r="5" /><circle
       style="fill:#000000;fill-opacity:0;stroke:#d0d000;stroke-width:0.2;stroke-linejoin:round;stroke-dasharray:none"
       id="path32-1-8"
       cx="9.6095095"
       cy="175.37675"
       r="5" /><path
       id="rect34-9-0-9-7"
       style="fill-opacity:0;stroke:#d0d000;stroke-width:0.2;stroke-linejoin:round"
       d="M 50.184763,61.099998 97.999999,75.718578 90.398344,100.5825 42.583104,85.963918 Z"
       sodipodi:nodetypes="ccccc" /><path
       id="rect31-4-8-2"
       style="fill-opacity:0;stroke:#ff0000;stroke-width:0.2;stroke-linejoin:round"
       d="m 183.72364,119.51225 2.95442,-0.52093 1.73648,9.84808 -2.95441,0.52093 z" /><path
       id="rect31-4-8-2-4"
       style="fill-opacity:0;stroke:#ff0000;stroke-width:0.2;stroke-linejoin:round"
       d="m 316.33266,147.73489 2.45745,1.72073 -5.73577,8.19151 -2.45745,-1.72073 z" /><path
       id="rect31-4-8-2-3"
       style="fill-opacity:0;stroke:#ff0000;stroke-width:0.2;stroke-linejoin:round"
       d="m -4.0531271,172.00908 2.95442,-0.52093 1.73648,9.84808 -2.95441,0.52093 z" /><path
       id="rect31-4-8-2-4-6"
       style="fill-opacity:0;stroke:#ff0000;stroke-width:0.2;stroke-linejoin:round"
       d="m 128.55589,200.23172 2.45745,1.72073 -5.73577,8.19151 -2.45745,-1.72073 z" /><path
       id="path6-6-0-8"
       style="fill:none;fill-opacity:0;stroke:#000000;stroke-width:0.2;stroke-linejoin:round"
       d="M 122.85976,118.82755 138.34634,96.710445 C 95.656203,66.818485 42.839993,55.109415 -8.4833071,64.159095 l 4.6885,26.58981 C 40.476433,82.942695 86.035443,93.042875 122.85976,118.82755 Z"
       sodipodi:nodetypes="ccccc" /><circle
       style="fill:none;stroke:#ff0000;stroke-width:0.2;stroke-linejoin:round"
       id="path11-8-1-8-9-5"
       cx="-3.6255095"
       cy="75.900246"
       r="1"
       transform="rotate(-10)" /><circle
       style="fill:none;stroke:#ff0000;stroke-width:0.2;stroke-linejoin:round"
       id="path11-8-1-4-8-3-1"
       cx="98.194466"
       cy="118.07529"
       r="1"
       transform="rotate(-10)" /><circle
       style="fill:#000000;fill-opacity:0;stroke:#d0d000;stroke-width:0.2;stroke-linejoin:round;stroke-dasharray:none"
       id="path32-7-2-6"
       cx="117.20623"
       cy="99.230171"
       r="5" /><circle
       style="fill:#000000;fill-opacity:0;stroke:#d0d000;stroke-width:0.2;stroke-linejoin:round;stroke-dasharray:none"
       id="path32-1-8-3"
       cx="9.6095085"
       cy="75.376732"
       r="5" /><path
       id="rect31-4-8-2-6"
       style="fill-opacity:0;stroke:#ff0000;stroke-width:0.2;stroke-linejoin:round"
       d="m 337.17917,58.308333 3,1e-5 v 10 l -2.99999,-10e-6 z" /><path
       id="rect31-4-8-2-6-6"
       style="fill-opacity:0;stroke:#ff0000;stroke-width:0.2;stroke-linejoin:round"
       d="m 216.27699,117.5032 3,10e-6 v 10 l -2.99999,-10e-6 z" /><path
       id="path1"
       style="fill:none;fill-opacity:0;stroke:#ff0000;stroke-width:0.2;stroke-linejoin:round"
       d="m 88.000218,146.0003 c 24.300512,0 44.000002,19.69949 44.000002,44 v 0 0 c 0,24.30051 -19.69949,44 -44.000002,44 h -47 c -24.300505,0 -43.9999995,-19.69949 -43.9999995,-44 0,-24.30051 19.6994945,-44 43.9999995,-44 z"
       sodipodi:nodetypes="sscssssss" /><path
       style="fill:#000000;fill-opacity:0;stroke:#ff0000;stroke-width:0.2;stroke-linejoin:round"
       d="m -11.348497,147.9098 10.41888015,59.08845"
       id="path4-7-7-8"
       sodipodi:nodetypes="cc" /><path
       style="fill:#000000;fill-opacity:0;stroke:#ff0000;stroke-width:0.2;stroke-linejoin:round"
       d="m 147.81034,183.19446 -34.41458,49.14912"
       id="path4-7-7-89"
       sodipodi:nodetypes="cc" /><path
       style="fill:none;stroke:#ff0000;stroke-width:0.2;stroke-linejoin:round"
       d="m 337.17919,94.030171 2.99998,-10e-7 10e-6,-17.000012 h -3.00001 z"
       id="path23-6-7-0-0-8-2-6"
       sodipodi:nodetypes="ccccc" /><path
       style="fill:none;stroke:#ff0000;stroke-width:0.2;stroke-linejoin:round"
       d="m -1.7088621,85.303966 2.9544,-0.520942 -2.95201,-16.741745 -2.95443,0.520945 z"
       id="path23-6-7-0-0-8-2-6-0"
       sodipodi:nodetypes="ccccc" /><path
       style="fill:none;stroke:#ff0000;stroke-width:0.2;stroke-linejoin:round"
       d="m 120.81261,111.29026 2.45744,1.72072 9.75081,-13.92559 -2.45746,-1.720735 z"
       id="path23-6-7-0-0-8-2-6-09"
       sodipodi:nodetypes="ccccc" /><path
       id="path2"
       style="fill:none;fill-opacity:0;stroke:#ff0000;stroke-width:0.2;stroke-linejoin:round"
       d="M 42.500219,129 C 20.961135,129 3.5002185,111.53909 3.5002185,90 c 0,-21.539088 17.4609165,-39 39.0000005,-39 h 44 c 21.539091,0 39.000001,17.460912 39.000001,39 v 0 0 c 0,21.53909 -17.46091,39 -39.000001,39 z"
       sodipodi:nodetypes="ssssscsss" /><path
       style="fill:#000000;fill-opacity:0;stroke:#0000ff;stroke-width:0.2;stroke-linejoin:round"
       d="m 48.696821,65.96684 1.487941,-4.866842 15.650457,4.784823"
       id="path3"
       sodipodi:nodetypes="ccc" /><path
       style="fill:#000000;fill-opacity:0;stroke:#0000ff;stroke-width:0.2;stroke-linejoin:round"
       d="m 94.052071,74.511576 3.947926,1.207 -3.949301,12.917606"
       id="path4"
       sodipodi:nodetypes="ccc" /><path
       style="fill:#000000;fill-opacity:0;stroke:#0000ff;stroke-width:0.2;stroke-linejoin:round"
       d="M 91.177335,98.034531 90.398344,100.5825 82.078122,98.038753"
       id="path7"
       sodipodi:nodetypes="ccc" /><path
       id="path8-8-3-1"
       style="fill:none;fill-opacity:0;stroke:#000000;stroke-width:0.2;stroke-linejoin:round"
       d="m 130.60274,407.7688 a 183,183 0 0 1 2.4e-4,2.3e-4" /><path
       id="path6-6-0-9"
       style="fill:none;fill-opacity:0;stroke:#000000;stroke-width:0.2;stroke-linejoin:round"
       d="M 41.000081 346.00007 C 27.304885 346.00007 15.072463 352.25818 7.0026733 362.06937 C 1.8334887 362.56203 -3.3323474 363.25093 -8.4832031 364.15917 L -3.7946004 390.74876 C -3.5247302 390.70117 -3.2542776 390.66272 -2.984314 390.61647 C -2.6532515 414.63168 16.906218 434.00038 41.000081 434.00038 L 88.000313 434.00038 C 101.60321 434.00038 113.76133 427.82481 121.83236 418.12745 C 122.17375 418.36279 122.51977 418.58965 122.85968 418.82767 L 138.34608 396.71067 C 136.23421 395.23192 134.09099 393.81045 131.93097 392.42101 C 131.97446 391.61926 132.00021 390.81309 132.00021 390.00048 C 132.00021 365.7 112.3008 346.00007 88.000313 346.00007 L 41.000081 346.00007 z " /><path
       id="rect27-7-4-6-3"
       style="fill:none;stroke:#ff0000;stroke-width:0.2;stroke-linejoin:round"
       d="m 28.500196,265.00001 h 3 v 20 h -3 z"
       sodipodi:nodetypes="ccccc" /><path
       id="rect23-1-6"
       style="fill:none;stroke:#ff0000;stroke-width:0.2;stroke-linejoin:round"
       d="m 97.49998,385.00001 h 3 v 10 h -3 z" /><path
       id="rect24-2-7"
       style="fill:none;stroke:#ff0000;stroke-width:0.2;stroke-linejoin:round"
       d="m 28.500196,385.00001 h 3 v 10 h -3 z" /><path
       id="rect25-9-8"
       style="fill:none;stroke:#ff0000;stroke-width:0.2;stroke-linejoin:round"
       d="m 30.000198,415.00001 h 10 v 3 h -10 z" /><path
       id="rect26-3-9"
       style="fill:none;stroke:#ff0000;stroke-width:0.2;stroke-linejoin:round"
       d="M 88.999978,415.00001 H 98.99998 v 3 H 88.999978 Z" /><path
       id="rect25-3-8-6"
       style="fill:none;stroke:#ff0000;stroke-width:0.2;stroke-linejoin:round"
       d="m 30.000198,362.00001 h 10 v 3 h -10 z" /><path
       id="rect26-0-2-0"
       style="fill:none;stroke:#ff0000;stroke-width:0.2;stroke-linejoin:round"
       d="M 88.999978,362.00001 H 98.99998 v 3 H 88.999978 Z"
       sodipodi:nodetypes="ccccc" /><path
       id="rect27-9-0-1"
       style="fill:none;stroke:#ff0000;stroke-width:0.2;stroke-linejoin:round"
       d="m 97.49998,280.00001 h 3 v 20 h -3 z"
       sodipodi:nodetypes="ccccc" /><path
       id="rect28-0-6"
       style="fill:none;stroke:#ff0000;stroke-width:0.2;stroke-linejoin:round"
       d="m 54.499978,315.00001 h 20 v 3 h -20 z" /><path
       id="rect29-7-1"
       style="fill:none;stroke:#ff0000;stroke-width:0.2;stroke-linejoin:round"
       d="m 54.499978,262.00001 h 20 v 3 h -20 z" /><path
       id="rect32-7-2-7"
       style="fill-opacity:0;stroke:#ff0000;stroke-width:0.2;stroke-linejoin:round"
       d="m 34.999978,265.99943 v 32.00011 H 93.99998 v -32.00011 z"
       sodipodi:nodetypes="ccccc" /><path
       id="rect32-7-9-0-5"
       style="fill-opacity:0;stroke:#ff0000;stroke-width:0.2;stroke-linejoin:round"
       d="m 34.999978,366 v 32.00011 H 93.99998 V 366 Z"
       sodipodi:nodetypes="ccccc" /><circle
       style="fill:#000000;fill-opacity:0;stroke:#d0d000;stroke-width:0.2;stroke-linejoin:round;stroke-dasharray:none"
       id="path32-7-2-9"
       cx="117.20621"
       cy="399.23019"
       r="5" /><circle
       style="fill:#000000;fill-opacity:0;stroke:#d0d000;stroke-width:0.2;stroke-linejoin:round;stroke-dasharray:none"
       id="path32-1-8-9"
       cx="9.6094875"
       cy="375.37674"
       r="5" /><path
       id="rect34-9-0-9-7-4"
       style="fill-opacity:0;stroke:#d0d000;stroke-width:0.2;stroke-linejoin:round"
       d="M 50.184741,261.1 97.99998,275.71858 90.398322,300.5825 42.583082,285.96392 Z"
       sodipodi:nodetypes="ccccc" /><path
       id="rect34-9-0-9-7-4-4"
       style="fill-opacity:0;stroke:#d0d000;stroke-width:0.2;stroke-linejoin:round"
       d="m 171.34803,339.68709 50,-1e-5 0,25.99999 -50,10e-6 z"
       sodipodi:nodetypes="ccccc" /><path
       id="rect31-4-8-2-3-8"
       style="fill-opacity:0;stroke:#ff0000;stroke-width:0.2;stroke-linejoin:round"
       d="m -4.0531493,372.00908 2.95442,-0.52093 1.73647998,9.84808 -2.95440998,0.52093 z" /><path
       id="rect31-4-8-2-4-6-2"
       style="fill-opacity:0;stroke:#ff0000;stroke-width:0.2;stroke-linejoin:round"
       d="m 128.55587,400.23172 2.45745,1.72073 -5.73577,8.19151 -2.45745,-1.72073 z" /><path
       id="path8-8-3-1-9"
       style="fill:none;fill-opacity:0;stroke:#000000;stroke-width:0.2;stroke-linejoin:round"
       d="m -0.73986544,507.76873 a 183,183 0 0 0 -2.4e-4,2.3e-4" /><path
       id="path6-6-0-9-2"
       style="fill:none;fill-opacity:0;stroke:#000000;stroke-width:0.2;stroke-linejoin:round"
       d="m 88.862794,446 c 13.695196,0 25.927616,6.25811 33.997406,16.0693 5.16919,0.49266 10.33502,1.18156 15.48588,2.0898 l -4.68861,26.58959 c -0.26987,-0.0476 -0.54032,-0.086 -0.81028,-0.13229 -0.33106,24.01521 -19.89053,43.38391 -43.984396,43.38391 H 41.862562 c -13.602897,0 -25.761017,-6.17557 -33.8320474,-15.87293 -0.34139,0.23534 -0.68741,0.4622 -1.02732,0.70022 l -15.4864,-22.117 c 2.11187,-1.47875 4.25509,-2.90022 6.41511,-4.28966 -0.0435,-0.80175 -0.0692,-1.60792 -0.0692,-2.42053 C -2.1372954,465.69993 17.562115,446 41.862602,446 Z" /><path
       id="rect23-1-6-2"
       style="fill:none;stroke:#ff0000;stroke-width:0.2;stroke-linejoin:round"
       d="m 32.362895,484.99994 h -3 v 10 h 3 z" /><path
       id="rect24-2-7-8"
       style="fill:none;stroke:#ff0000;stroke-width:0.2;stroke-linejoin:round"
       d="m 101.36268,484.99994 h -3.000001 v 10 h 3.000001 z" /><path
       id="rect25-9-8-2"
       style="fill:none;stroke:#ff0000;stroke-width:0.2;stroke-linejoin:round"
       d="m 99.862677,514.99994 h -10 v 3 h 10 z" /><path
       id="rect26-3-9-1"
       style="fill:none;stroke:#ff0000;stroke-width:0.2;stroke-linejoin:round"
       d="M 40.862897,514.99994 H 30.862895 v 3 h 10.000002 z" /><path
       id="rect25-3-8-6-3"
       style="fill:none;stroke:#ff0000;stroke-width:0.2;stroke-linejoin:round"
       d="m 99.862677,461.99994 h -10 v 3 h 10 z" /><path
       id="rect26-0-2-0-1"
       style="fill:none;stroke:#ff0000;stroke-width:0.2;stroke-linejoin:round"
       d="M 40.862897,461.99994 H 30.862895 v 3 h 10.000002 z"
       sodipodi:nodetypes="ccccc" /><path
       id="rect32-7-9-0-5-6"
       style="fill-opacity:0;stroke:#ff0000;stroke-width:0.2;stroke-linejoin:round"
       d="m 94.862897,465.99993 v 32.00011 H 35.862895 v -32.00011 z"
       sodipodi:nodetypes="ccccc" /><circle
       style="fill:#000000;fill-opacity:0;stroke:#d0d000;stroke-width:0.2;stroke-linejoin:round;stroke-dasharray:none"
       id="path32-7-2-9-9"
       cx="-12.656675"
       cy="499.23013"
       r="5"
       transform="scale(-1,1)" /><circle
       style="fill:#000000;fill-opacity:0;stroke:#d0d000;stroke-width:0.2;stroke-linejoin:round;stroke-dasharray:none"
       id="path32-1-8-9-7"
       cx="-120.25339"
       cy="475.37668"
       r="5"
       transform="scale(-1,1)" /><path
       id="rect31-4-8-2-3-8-2"
       style="fill-opacity:0;stroke:#ff0000;stroke-width:0.2;stroke-linejoin:round"
       d="m 133.91602,472.00901 -2.95442,-0.52093 -1.73648,9.84808 2.95441,0.52093 z" /><path
       id="rect31-4-8-2-4-6-2-1"
       style="fill-opacity:0;stroke:#ff0000;stroke-width:0.2;stroke-linejoin:round"
       d="m 1.3070046,500.23165 -2.45745,1.72073 5.73577,8.19151 2.45745,-1.72073 z" /><path
       id="path6-6-0-8-6"
       style="fill:none;fill-opacity:0;stroke:#000000;stroke-width:0.2;stroke-linejoin:round"
       d="M 42.500248 251.00018 C 32.256441 251.00018 22.94026 254.95476 15.980937 261.41402 C 7.819452 261.81579 -0.35046076 262.72505 -8.4832031 264.15907 L -3.7946004 290.74866 C -1.3633341 290.31996 1.0719725 289.95506 3.5093465 289.634 C 3.5082152 289.75646 3.5000448 289.87714 3.5000448 289.99987 C 3.5000448 311.53894 20.961186 329.00007 42.500248 329.00007 L 86.500146 329.00007 C 98.662141 329.00007 109.52172 323.43117 116.67402 314.70637 C 118.76005 316.03476 120.82528 317.40306 122.85968 318.82757 L 138.34608 296.71057 C 134.14623 293.76981 129.84535 291.01163 125.46056 288.42529 C 124.63306 267.61736 107.51104 251.00018 86.500146 251.00018 L 42.500248 251.00018 z " /><circle
       style="fill:#000000;fill-opacity:0;stroke:#d0d000;stroke-width:0.2;stroke-linejoin:round;stroke-dasharray:none"
       id="path32-7-2-6-3"
       cx="117.20621"
       cy="299.23016"
       r="5" /><circle
       style="fill:#000000;fill-opacity:0;stroke:#d0d000;stroke-width:0.2;stroke-linejoin:round;stroke-dasharray:none"
       id="path32-1-8-3-4"
       cx="9.6094856"
       cy="275.37671"
       r="5" /><path
       style="fill:none;stroke:#ff0000;stroke-width:0.2;stroke-linejoin:round"
       d="m -1.7088843,285.30397 2.9544001,-0.52095 -2.9520101,-16.74174 -2.95443,0.52094 z"
       id="path23-6-7-0-0-8-2-6-0-6"
       sodipodi:nodetypes="ccccc" /><path
       style="fill:none;stroke:#ff0000;stroke-width:0.2;stroke-linejoin:round"
       d="m 120.81259,311.29026 2.45744,1.72072 9.75081,-13.92559 -2.45746,-1.72073 z"
       id="path23-6-7-0-0-8-2-6-09-4"
       sodipodi:nodetypes="ccccc" /><path
       style="fill:#000000;fill-opacity:0;stroke:#0000ff;stroke-width:0.2;stroke-linejoin:round"
       d="M 48.696799,265.96684 50.18474,261.1 l 15.650457,4.78482"
       id="path3-3"
       sodipodi:nodetypes="ccc" /><path
       style="fill:#000000;fill-opacity:0;stroke:#0000ff;stroke-width:0.2;stroke-linejoin:round"
       d="m 94.05205,274.51158 3.94792,1.207 -3.9493,12.9176"
       id="path4-3"
       sodipodi:nodetypes="ccc" /><path
       style="fill:#000000;fill-opacity:0;stroke:#0000ff;stroke-width:0.2;stroke-linejoin:round"
       d="M 91.17731,298.03453 90.398322,300.5825 82.0781,298.03875"
       id="path7-4"
       sodipodi:nodetypes="ccc" /><path
       id="rect31-4-8-2-6-4"
       style="fill-opacity:0;stroke:#ff0000;stroke-width:0.2;stroke-linejoin:round"
       d="m 285.27676,132.50321 3,1e-5 v 10 l -2.99999,-1e-5 z" /><g
       inkscape:label="Hershey Text"
       style="fill:none;stroke:#0000ff;stroke-linecap:round;stroke-linejoin:round"
       id="g59"
       transform="matrix(0.52983681,0,0,0.52983681,-56.482915,140.526)"><g
         transform="translate(159.514,731.904)"
         id="g58"
         style="stroke:#0000ff"><path
           d="M 220,662 V 0 m 0,315 95,95 63,31 h 94 l 64,-31 31,-95 V 0"
           style="stroke:#0000ff;stroke-width:0.6459in"
           transform="scale(0.00705556,-0.00705556)"
           id="path8-83" /><path
           d="M 252,662 V 126 L 284,31.5 346,0 h 64 M 158,441 h 220"
           style="stroke:#0000ff;stroke-width:0.6459in"
           transform="matrix(0.00705556,0,0,-0.00705556,4.21922,0)"
           id="path12-5" /><path
           d="M 252,662 V 126 L 284,31.5 346,0 h 64 M 158,441 h 220"
           style="stroke:#0000ff;stroke-width:0.6459in"
           transform="matrix(0.00705556,0,0,-0.00705556,6.88623,0)"
           id="path16" /><path
           d="m 220,441 v -661 m 0,566 64,64 62,31 h 95 l 63,-31 63,-64 31,-94 V 189 L 567,94.5 504,31.5 441,0 h -95 l -62,31.5 -64,63"
           style="stroke:#0000ff;stroke-width:0.6459in"
           transform="matrix(0.00705556,0,0,-0.00705556,9.55323,0)"
           id="path19" /><path
           d="m 536,346 -32,64 -94,31 h -95 l -95,-31 -31,-64 31,-62 64,-32 157,-32 63,-31 32,-63 V 94.5 L 504,31.5 410,0 h -95 l -95,31.5 -31,63"
           style="stroke:#0000ff;stroke-width:0.6459in"
           transform="matrix(0.00705556,0,0,-0.00705556,13.7725,0)"
           id="path20" /><path
           d="m 220,378 -31,-32 31,-31 32,31 -32,32 m 0,-220 -31,-32 31,-31.5 32,31.5 -32,32"
           style="stroke:#0000ff;stroke-width:0.6459in"
           transform="matrix(0.00705556,0,0,-0.00705556,17.5542,0)"
           id="path23" /><path
           d="M 724,788 158,-220"
           style="stroke:#0000ff;stroke-width:0.6459in"
           transform="matrix(0.00705556,0,0,-0.00705556,19.3322,0)"
           id="path25-0" /><path
           d="M 724,788 158,-220"
           style="stroke:#0000ff;stroke-width:0.6459in"
           transform="matrix(0.00705556,0,0,-0.00705556,24.2217,0)"
           id="path27" /><path
           d="M 220,662 V 0 M 536,441 220,126 M 346,252 567,0"
           style="stroke:#0000ff;stroke-width:0.6459in"
           transform="matrix(0.00705556,0,0,-0.00705556,29.1112,0)"
           id="path29" /><path
           d="M 567,441 V 0 m 0,346 -63,64 -63,31 H 346 L 284,410 220,346 189,252 V 189 L 220,94.5 284,31.5 346,0 h 95 l 63,31.5 63,63"
           style="stroke:#0000ff;stroke-width:0.6459in"
           transform="matrix(0.00705556,0,0,-0.00705556,32.893,0)"
           id="path31" /><path
           d="M 252,662 V 126 L 284,31.5 346,0 h 64 M 158,441 h 220"
           style="stroke:#0000ff;stroke-width:0.6459in"
           transform="matrix(0.00705556,0,0,-0.00705556,37.1122,0)"
           id="path32" /><path
           d="M 346,441 284,410 220,346 189,252 V 189 L 220,94.5 284,31.5 346,0 h 95 l 63,31.5 63,63 31,94.5 v 63 l -31,94 -63,64 -63,31 h -95"
           style="stroke:#0000ff;stroke-width:0.6459in"
           transform="matrix(0.00705556,0,0,-0.00705556,39.7792,0)"
           id="path33" /><path
           d="M 220,284 H 788"
           style="stroke:#0000ff;stroke-width:0.6459in"
           transform="matrix(0.00705556,0,0,-0.00705556,43.9985,0)"
           id="path34" /><path
           d="M 220,441 V 0 m 0,315 95,95 63,31 h 94 l 64,-31 31,-95 V 0 m 0,315 95,95 62,31 h 95 l 63,-31 32,-95 V 0"
           style="stroke:#0000ff;stroke-width:0.6459in"
           transform="matrix(0.00705556,0,0,-0.00705556,49.777,0)"
           id="path35" /><path
           d="m 189,662 31,-32 32,32 -32,31 -31,-31 M 220,441 V 0"
           style="stroke:#0000ff;stroke-width:0.6459in"
           transform="matrix(0.00705556,0,0,-0.00705556,56.4445,0)"
           id="path36" /><path
           d="M 220,441 V 0 m 0,315 95,95 63,31 h 94 l 64,-31 31,-95 V 0"
           style="stroke:#0000ff;stroke-width:0.6459in"
           transform="matrix(0.00705556,0,0,-0.00705556,58.2225,0)"
           id="path37" /><path
           d="m 189,662 31,-32 32,32 -32,31 -31,-31 M 220,441 V 0"
           style="stroke:#0000ff;stroke-width:0.6459in"
           transform="matrix(0.00705556,0,0,-0.00705556,62.4417,0)"
           id="path38" /><path
           d="M 567,662 V 0 m 0,346 -63,64 -63,31 H 346 L 284,410 220,346 189,252 V 189 L 220,94.5 284,31.5 346,0 h 95 l 63,31.5 63,63"
           style="stroke:#0000ff;stroke-width:0.6459in"
           transform="matrix(0.00705556,0,0,-0.00705556,64.2197,0)"
           id="path39" /><path
           d="M 220,284 H 788"
           style="stroke:#0000ff;stroke-width:0.6459in"
           transform="matrix(0.00705556,0,0,-0.00705556,68.4389,0)"
           id="path40" /><path
           d="M 410,662 H 346 L 284,630 252,536 V 0 m -94,441 h 220"
           style="stroke:#0000ff;stroke-width:0.6459in"
           transform="matrix(0.00705556,0,0,-0.00705556,74.2174,0)"
           id="path41" /><path
           d="M 220,441 V 0 m 0,252 32,94 63,64 63,31 h 94"
           style="stroke:#0000ff;stroke-width:0.6459in"
           transform="matrix(0.00705556,0,0,-0.00705556,76.8844,0)"
           id="path42" /><path
           d="m 220,158 -31,-32 31,-31.5 32,31.5 -32,32"
           style="stroke:#0000ff;stroke-width:0.6459in"
           transform="matrix(0.00705556,0,0,-0.00705556,79.7772,0)"
           id="path43" /><path
           d="M 410,662 H 346 L 284,630 252,536 V 0 m -94,441 h 220"
           style="stroke:#0000ff;stroke-width:0.6459in"
           transform="matrix(0.00705556,0,0,-0.00705556,81.5552,0)"
           id="path44" /><path
           d="M 346,441 284,410 220,346 189,252 V 189 L 220,94.5 284,31.5 346,0 h 95 l 63,31.5 63,63 31,94.5 v 63 l -31,94 -63,64 -63,31 h -95"
           style="stroke:#0000ff;stroke-width:0.6459in"
           transform="matrix(0.00705556,0,0,-0.00705556,84.2222,0)"
           id="path45" /><path
           d="M 220,441 V 0 m 0,252 32,94 63,64 63,31 h 94"
           style="stroke:#0000ff;stroke-width:0.6459in"
           transform="matrix(0.00705556,0,0,-0.00705556,88.4414,0)"
           id="path46" /><path
           d="M 220,441 V 126 L 252,31.5 315,0 h 95 l 62,31.5 95,94.5 m 0,315 V 0"
           style="stroke:#0000ff;stroke-width:0.6459in"
           transform="matrix(0.00705556,0,0,-0.00705556,91.3342,0)"
           id="path47" /><path
           d="M 220,441 V 0 m 0,315 95,95 63,31 h 94 l 64,-31 31,-95 V 0 m 0,315 95,95 62,31 h 95 l 63,-31 32,-95 V 0"
           style="stroke:#0000ff;stroke-width:0.6459in"
           transform="matrix(0.00705556,0,0,-0.00705556,95.5534,0)"
           id="path48" /><path
           d="M 567,441 V 0 m 0,346 -63,64 -63,31 H 346 L 284,410 220,346 189,252 V 189 L 220,94.5 284,31.5 346,0 h 95 l 63,31.5 63,63"
           style="stroke:#0000ff;stroke-width:0.6459in"
           transform="matrix(0.00705556,0,0,-0.00705556,102.221,0)"
           id="path49" /><path
           d="m 567,346 -63,64 -63,31 H 346 L 284,410 220,346 189,252 V 189 L 220,94.5 284,31.5 346,0 h 95 l 63,31.5 63,63"
           style="stroke:#0000ff;stroke-width:0.6459in"
           transform="matrix(0.00705556,0,0,-0.00705556,106.44,0)"
           id="path50" /><path
           d="M 252,662 V 126 L 284,31.5 346,0 h 64 M 158,441 h 220"
           style="stroke:#0000ff;stroke-width:0.6459in"
           transform="matrix(0.00705556,0,0,-0.00705556,110.441,0)"
           id="path51" /><path
           d="m 189,662 31,-32 32,32 -32,31 -31,-31 M 220,441 V 0"
           style="stroke:#0000ff;stroke-width:0.6459in"
           transform="matrix(0.00705556,0,0,-0.00705556,113.108,0)"
           id="path52" /><path
           d="M 410,662 H 346 L 284,630 252,536 V 0 m -94,441 h 220"
           style="stroke:#0000ff;stroke-width:0.6459in"
           transform="matrix(0.00705556,0,0,-0.00705556,114.886,0)"
           id="path53" /><path
           d="m 220,158 -31,-32 31,-31.5 32,31.5 -32,32"
           style="stroke:#0000ff;stroke-width:0.6459in"
           transform="matrix(0.00705556,0,0,-0.00705556,117.553,0)"
           id="path54" /><path
           d="m 567,346 -63,64 -63,31 H 346 L 284,410 220,346 189,252 V 189 L 220,94.5 284,31.5 346,0 h 95 l 63,31.5 63,63"
           style="stroke:#0000ff;stroke-width:0.6459in"
           transform="matrix(0.00705556,0,0,-0.00705556,119.331,0)"
           id="path55" /><path
           d="M 346,441 284,410 220,346 189,252 V 189 L 220,94.5 284,31.5 346,0 h 95 l 63,31.5 63,63 31,94.5 v 63 l -31,94 -63,64 -63,31 h -95"
           style="stroke:#0000ff;stroke-width:0.6459in"
           transform="matrix(0.00705556,0,0,-0.00705556,123.331,0)"
           id="path56" /><path
           d="M 220,441 V 0 m 0,315 95,95 63,31 h 94 l 64,-31 31,-95 V 0 m 0,315 95,95 62,31 h 95 l 63,-31 32,-95 V 0"
           style="stroke:#0000ff;stroke-width:0.6459in"
           transform="matrix(0.00705556,0,0,-0.00705556,127.55,0)"
           id="path57" /><path
           d="M 724,788 158,-220"
           style="stroke:#0000ff;stroke-width:0.6459in"
           transform="matrix(0.00705556,0,0,-0.00705556,134.218,0)"
           id="path58" /></g></g><g
       inkscape:label="Hershey Text"
       style="fill:none;stroke:#0000ff;stroke-linecap:round;stroke-linejoin:round"
       id="g27"
       transform="translate(-111.96092,17.730526)"><g
         transform="translate(150.548,435.499)"
         id="g26"
         style="stroke:#0000ff"><path
           d="M 220,662 V 0 M 220,662 472,0 M 724,662 472,0 M 724,662 V 0"
           style="stroke:#0000ff;stroke-width:0.6459in"
           transform="scale(0.00705556,-0.00705556)"
           id="path9" /><path
           d="M 346,441 284,410 220,346 189,252 V 189 L 220,94.5 284,31.5 346,0 h 95 l 63,31.5 63,63 31,94.5 v 63 l -31,94 -63,64 -63,31 h -95"
           style="stroke:#0000ff;stroke-width:0.6459in"
           transform="matrix(0.00705556,0,0,-0.00705556,5.334,0)"
           id="path10" /><path
           d="M 567,662 V 0 m 0,346 -63,64 -63,31 H 346 L 284,410 220,346 189,252 V 189 L 220,94.5 284,31.5 346,0 h 95 l 63,31.5 63,63"
           style="stroke:#0000ff;stroke-width:0.6459in"
           transform="matrix(0.00705556,0,0,-0.00705556,9.55322,0)"
           id="path11" /><path
           d="M 220,441 V 126 L 252,31.5 315,0 h 95 l 62,31.5 95,94.5 m 0,315 V 0"
           style="stroke:#0000ff;stroke-width:0.6459in"
           transform="matrix(0.00705556,0,0,-0.00705556,13.7724,0)"
           id="path13" /><path
           d="M 220,662 V 0"
           style="stroke:#0000ff;stroke-width:0.6459in"
           transform="matrix(0.00705556,0,0,-0.00705556,17.9917,0)"
           id="path14" /><path
           d="m 189,252 h 378 v 63 l -31,63 -32,32 -63,31 H 346 L 284,410 220,346 189,252 V 189 L 220,94.5 284,31.5 346,0 h 95 l 63,31.5 63,63"
           style="stroke:#0000ff;stroke-width:0.6459in"
           transform="matrix(0.00705556,0,0,-0.00705556,19.7697,0)"
           id="path15" /><path
           d="M 220,441 V 0 m 0,252 32,94 63,64 63,31 h 94"
           style="stroke:#0000ff;stroke-width:0.6459in"
           transform="matrix(0.00705556,0,0,-0.00705556,26.4372,0)"
           id="path17" /><path
           d="m 284,536 62,31 95,95 V 0"
           style="stroke:#0000ff;stroke-width:0.6459in"
           transform="matrix(0.00705556,0,0,-0.00705556,29.3299,0)"
           id="path18" /><path
           d="m 346,662 -94,-32 -32,-63 v -63 l 32,-63 63,-31 126,-32 95,-32 62,-62 32,-64 V 126 L 598,63 567,31.5 472,0 H 346 L 252,31.5 220,63 189,126 v 94 l 31,64 64,62 94,32 126,32 63,31 31,63 v 63 l -31,63 -95,32 H 346"
           style="stroke:#0000ff;stroke-width:0.6459in"
           transform="matrix(0.00705556,0,0,-0.00705556,33.7749,0)"
           id="path21" /><path
           d="M 252,662 H 598 L 410,410 h 94 l 63,-32 31,-32 32,-94 V 189 L 598,94.5 536,31.5 441,0 H 346 L 252,31.5 220,63 189,126"
           style="stroke:#0000ff;stroke-width:0.6459in"
           transform="matrix(0.00705556,0,0,-0.00705556,38.2199,0)"
           id="path22" /><path
           d="M 158,441 346,0 M 536,441 346,0"
           style="stroke:#0000ff;stroke-width:0.6459in"
           transform="matrix(0.00705556,0,0,-0.00705556,45.3319,0)"
           id="path24" /><path
           d="m 284,536 62,31 95,95 V 0"
           style="stroke:#0000ff;stroke-width:0.6459in"
           transform="matrix(0.00705556,0,0,-0.00705556,48.8879,0)"
           id="path26" /></g></g></g></svg>
