<?xml version="1.0" encoding="UTF-8" standalone="no"?>
<!-- Created with Inkscape (http://www.inkscape.org/) -->

<svg
   width="305mm"
   height="1000mm"
   viewBox="0 0 305 1000"
   version="1.1"
   id="svg1"
   xml:space="preserve"
   inkscape:version="1.3.2 (091e20e, 2023-11-25, custom)"
   sodipodi:docname="Module 248 v2 Conception.svg"
   xmlns:inkscape="http://www.inkscape.org/namespaces/inkscape"
   xmlns:sodipodi="http://sodipodi.sourceforge.net/DTD/sodipodi-0.dtd"
   xmlns="http://www.w3.org/2000/svg"
   xmlns:svg="http://www.w3.org/2000/svg"><sodipodi:namedview
     id="namedview1"
     pagecolor="#ffffff"
     bordercolor="#000000"
     borderopacity="0.25"
     inkscape:showpageshadow="2"
     inkscape:pageopacity="0.0"
     inkscape:pagecheckerboard="0"
     inkscape:deskcolor="#d1d1d1"
     inkscape:document-units="mm"
     inkscape:zoom="0.5"
     inkscape:cx="1503"
     inkscape:cy="1548"
     inkscape:window-width="3807"
     inkscape:window-height="1328"
     inkscape:window-x="1288"
     inkscape:window-y="572"
     inkscape:window-maximized="0"
     inkscape:current-layer="layer1" /><defs
     id="defs1"><pattern
       id="EMFhbasepattern"
       patternUnits="userSpaceOnUse"
       width="6"
       height="6"
       x="0"
       y="0" /></defs><g
     inkscape:label="Calque 1"
     inkscape:groupmode="layer"
     id="layer1"><path
       id="path1"
       style="fill:none;fill-opacity:0;stroke:#ff0000;stroke-width:0.2;stroke-linejoin:round"
       d="m 41.000219,133.99997 c -24.300505,0 -44.0000002,-19.69949 -44.0000002,-43.999995 0,-24.30051 19.6994952,-44 44.0000002,-44 H 205.00013 c 24.30052,0 44.00001,19.69949 44.00001,44 v 0 0 c 0,24.300505 -19.69949,43.999995 -44.00001,43.999995 z"
       sodipodi:nodetypes="ssssscsss" /><path
       style="fill:none;stroke:#ff8000;stroke-width:0.2;stroke-linejoin:round"
       d="m 0,284.99968 h 5 v -5 h 10.000001 v 5 H 183 v -5 h 10 v 5 h 5 v 8 h -3.5 v -4 h -3 v 4 H 109 v 3 H 89.000001 v -3 H 6.5 v -4 h -3 v 4 H 0 Z"
       id="path23-8-2-3"
       sodipodi:nodetypes="ccccccccccccccccccccccccc" /><path
       style="fill:none;stroke:#ff8000;stroke-width:0.2;stroke-linejoin:round"
       d="m 293,319.99968 v -2 h 4 v -3 h -4 v -20 h -3 v -10 h 3 v -20 h 4 v -3 h -4 v -2 h 8 v 37 h 8 v 5 h 3 v 10 h -3 v 5 h -8 v 3 z"
       id="path23-6-7-0-7-0-1"
       sodipodi:nodetypes="ccccccccccccccccccccccccc" /><path
       style="fill:none;stroke:#ff8000;stroke-width:0.2;stroke-linejoin:round"
       d="m -46.761335,188.09968 v 2 h 4 v 3 h -4 v 20 h -3 v 10 h 3 v 20 h 4 v 3 h -4 v 2 h 8 v -37 h 8 v -5 h 3 v -10 h -3 v -5 h -8 v -3 z"
       id="path23-6-7-0-7-0-1-1"
       sodipodi:nodetypes="ccccccccccccccccccccccccc" /><path
       style="fill:none;stroke:#ff8000;stroke-width:0.2;stroke-linejoin:round"
       d="m 323,319.99968 v -8.5 h -3 v -10 h 3 v -8.5 h 8 v 5 h 8 v 3.5 h 3 v 10 h -3 v 3.5 h -8 v 5 z"
       id="path23-6-7-0-0"
       sodipodi:nodetypes="ccccccccccccccccc" /><path
       id="rect34-6"
       style="fill-opacity:0;stroke:#d0d000;stroke-width:0.2;stroke-linejoin:round"
       d="m 50,313.99968 h 66 v 26 H 50 Z"
       sodipodi:nodetypes="ccccc" /><path
       id="rect34-6-4"
       style="fill-opacity:0;stroke:#d0d000;stroke-width:0.2;stroke-linejoin:round"
       d="m 92.758858,171.46668 64.997302,11.46078 -4.51485,25.605 -64.997312,-11.46078 z"
       sodipodi:nodetypes="ccccc" /><path
       id="rect25-6"
       style="fill:none;stroke:#ff0000;stroke-width:0.2;stroke-linejoin:round"
       d="m 5,304.99968 h 10.000001 v 3 H 5 Z" /><path
       id="rect26-1"
       style="fill:none;stroke:#ff0000;stroke-width:0.2;stroke-linejoin:round"
       d="m 183,304.99968 h 10 v 3 h -10 z" /><path
       id="rect36-3"
       style="fill-opacity:0;stroke:#ff0000;stroke-width:0.2;stroke-linejoin:round"
       d="m 0,301.99968 h 198 v 9 H 0 Z"
       sodipodi:nodetypes="ccccc" /><path
       id="rect23-7"
       style="fill:none;stroke:#ff0000;stroke-width:0.2;stroke-linejoin:round"
       d="m 215.50018,84.999685 h 3 v 10 h -3 z" /><path
       id="rect24-42"
       style="fill:none;stroke:#ff0000;stroke-width:0.2;stroke-linejoin:round"
       d="m 27.500174,84.999685 h 3 v 10 h -3 z" /><path
       id="rect25-0"
       style="fill:none;stroke:#ff0000;stroke-width:0.2;stroke-linejoin:round"
       d="m 29.000174,114.99968 h 10 v 3 h -10 z" /><path
       id="rect26-8"
       style="fill:none;stroke:#ff0000;stroke-width:0.2;stroke-linejoin:round"
       d="m 207.00018,114.99968 h 10 v 3 h -10 z" /><path
       id="rect25-3-9"
       style="fill:none;stroke:#ff0000;stroke-width:0.2;stroke-linejoin:round"
       d="m 29.000174,61.999685 h 10 v 3 h -10 z" /><path
       id="rect26-0-5"
       style="fill:none;stroke:#ff0000;stroke-width:0.2;stroke-linejoin:round"
       d="m 207.00018,61.999685 h 10 v 3 h -10 z"
       sodipodi:nodetypes="ccccc" /><path
       id="rect32-7-9-9"
       style="fill-opacity:0;stroke:#ff0000;stroke-width:0.2;stroke-linejoin:round"
       d="m 94.000176,73.999685 v 13.23072 18.769385 H 152.00028 V 73.999685 h -43.9131 z" /><path
       id="rect39-3"
       style="fill-opacity:0;stroke:#ff0000;stroke-width:0.2;stroke-linejoin:round"
       d="m 164.00018,92.499685 h 3 v 9.999995 h -3 z" /><path
       id="rect40-6"
       style="fill-opacity:0;stroke:#ff0000;stroke-width:0.2;stroke-linejoin:round"
       d="m 79.000174,76.728625 h 3 v 10 h -3 z" /><circle
       style="fill:none;stroke:#ff0000;stroke-width:0.2;stroke-linejoin:round"
       id="path11-5"
       cx="31.009857"
       cy="67.273918"
       r="1"
       transform="rotate(10)" /><circle
       style="fill:none;stroke:#ff0000;stroke-width:0.2;stroke-linejoin:round"
       id="path11-8-9"
       cx="242.50987"
       cy="67.273918"
       r="1"
       transform="rotate(10)" /><path
       id="rect30-4"
       style="fill-opacity:0;stroke:#ff0000;stroke-width:0.2;stroke-linejoin:round"
       d="m 240.07574,105.56641 2.95442,0.52094 -1.73648,9.84808 -2.95443,-0.52094 z" /><path
       id="rect31-2"
       style="fill-opacity:0;stroke:#ff0000;stroke-width:0.2;stroke-linejoin:round"
       d="m 4.7066822,64.064495 2.9544239,0.52095 -1.7364818,9.84808 -2.9544239,-0.52095 z" /><path
       id="rect39-3-6"
       style="fill-opacity:0;stroke:#ff0000;stroke-width:0.2;stroke-linejoin:round"
       d="m 164.8112,250.84217 2.95442,-0.52095 1.73648,9.84808 -2.95442,0.52095 z" /><path
       id="rect40-6-3"
       style="fill-opacity:0;stroke:#ff0000;stroke-width:0.2;stroke-linejoin:round"
       d="m 78.363908,250.0708 2.954424,-0.52094 1.736481,9.84808 -2.954423,0.52094 z" /><path
       id="rect1-5-3"
       style="fill:none;stroke:#000000;stroke-width:0.2;stroke-linejoin:round"
       d="M 1.0014901e-6,242 248.00001,242.00001 V 269 L 0,269 Z"
       sodipodi:nodetypes="ccccc" /><path
       id="rect1-5-3-5"
       style="fill:none;stroke:#000000;stroke-width:0.2;stroke-linejoin:round"
       d="M 3.2281766,155.17236 247.4605,198.23712 242.772,224.82692 -1.4603254,181.76217 Z"
       sodipodi:nodetypes="ccccc" /><circle
       style="fill:none;stroke:#ff0000;stroke-width:0.2;stroke-linejoin:round"
       id="path11-5-2"
       cx="18.249992"
       cy="255.50006"
       r="1" /><circle
       style="fill:none;stroke:#ff0000;stroke-width:0.2;stroke-linejoin:round"
       id="path11-8-9-5"
       cx="229.75003"
       cy="255.50006"
       r="1" /><path
       id="rect30-4-9"
       style="fill-opacity:0;stroke:#ff0000;stroke-width:0.2;stroke-linejoin:round"
       d="m 242.00001,250.5 h 3 v 10 l -3,10e-6 z" /><path
       id="rect31-2-0"
       style="fill-opacity:0;stroke:#ff0000;stroke-width:0.2;stroke-linejoin:round"
       d="m 2.999999,250.5 h 3.000002 v 10.00001 L 2.999999,260.5 Z" /><path
       id="rect27-7-4-2"
       style="fill:none;stroke:#ff0000;stroke-width:0.2;stroke-linejoin:round"
       d="m 27.500139,162.99968 h 3 v 20 h -3 z"
       sodipodi:nodetypes="ccccc" /><path
       id="rect27-9-4"
       style="fill:none;stroke:#ff0000;stroke-width:0.2;stroke-linejoin:round"
       d="m 215.50014,196.99968 h 3 v 20 h -3 z"
       sodipodi:nodetypes="ccccc" /><path
       id="rect28-19"
       style="fill:none;stroke:#ff0000;stroke-width:0.2;stroke-linejoin:round"
       d="m 113.00014,214.99968 h 20 v 3 h -20 z" /><path
       id="rect29-9"
       style="fill:none;stroke:#ff0000;stroke-width:0.2;stroke-linejoin:round"
       d="m 113.00014,161.99968 h 20 v 3 h -20 z" /><path
       id="rect32-7-8"
       style="fill-opacity:0;stroke:#ff0000;stroke-width:0.2;stroke-linejoin:round"
       d="m 94.00014,173.99959 v 13.23072 18.76939 h 58.0001 v -32.00011 h -43.9131 z" /><path
       id="rect41-5"
       style="fill-opacity:0;stroke:#ff0000;stroke-width:0.2;stroke-linejoin:round"
       d="m 79.00014,173.22867 h 3 v 17 h -3 z"
       sodipodi:nodetypes="ccccc" /><path
       id="rect42-8"
       style="fill-opacity:0;stroke:#ff0000;stroke-width:0.2;stroke-linejoin:round"
       d="m 164.00014,188.99976 h 3 v 17 h -3 z"
       sodipodi:nodetypes="ccccc" /><circle
       style="fill:#000000;fill-opacity:0;stroke:#ff0000;stroke-width:0.2;stroke-linejoin:round;stroke-dasharray:none"
       id="path32-8-2-4-5-1"
       cx="18.856754"
       cy="71.636681"
       r="5" /><circle
       style="fill:#000000;fill-opacity:0;stroke:#ff0000;stroke-width:0.2;stroke-linejoin:round;stroke-dasharray:none"
       id="path32-8-2-4-5-4"
       cx="227.14362"
       cy="108.36327"
       r="5" /><path
       style="fill:#000000;fill-opacity:0;stroke:#ff0000;stroke-width:0.2;stroke-linejoin:round"
       d="M 290,59.999685 V 119.99968"
       id="path2"
       sodipodi:nodetypes="cc" /><path
       style="fill:#000000;fill-opacity:0;stroke:#ff0000;stroke-width:0.2;stroke-linejoin:round"
       d="m 6.0934655,38.923365 -10.418895,59.08846"
       id="path2-8"
       sodipodi:nodetypes="cc" /><path
       style="fill:#000000;fill-opacity:0;stroke:#ff0000;stroke-width:0.2;stroke-linejoin:round"
       d="m 250.32579,81.988115 -10.4189,59.088455"
       id="path2-0"
       sodipodi:nodetypes="cc" /><path
       id="rect40-6-9-2"
       style="fill-opacity:0;stroke:#ff0000;stroke-width:0.2;stroke-linejoin:round"
       d="m 26.130655,250.41766 2.954423,-0.52094 1.736482,9.84807 -2.954423,0.52095 z" /><path
       id="rect40-6-1-5"
       style="fill-opacity:0;stroke:#ff0000;stroke-width:0.2;stroke-linejoin:round"
       d="m 217.17856,251.25527 2.95442,-0.52095 1.73649,9.84808 -2.95443,0.52094 z" /><circle
       style="fill:#000000;fill-opacity:0;stroke:#ff0000;stroke-width:0.2;stroke-linejoin:round;stroke-dasharray:none"
       id="path32-8-2-4-5-1-5"
       cx="18.856665"
       cy="171.63637"
       r="5" /><circle
       style="fill:#000000;fill-opacity:0;stroke:#ff0000;stroke-width:0.2;stroke-linejoin:round;stroke-dasharray:none"
       id="path32-8-2-4-5-4-3"
       cx="227.14352"
       cy="208.36296"
       r="5" /><path
       id="path3"
       style="fill:none;fill-opacity:0;stroke:#ff0000;stroke-width:0.2;stroke-linejoin:round"
       d="m 42.500199,228.99968 c -21.539082,0 -38.9999995,-17.46091 -38.9999995,-39 0,-21.53909 17.4609175,-39 38.9999995,-39 H 203.50038 c 21.53909,0 39,17.46091 39,39 v 0 0 c 0,21.53909 -17.46091,39 -39,39 z"
       sodipodi:nodetypes="ssssscsss" /><path
       id="rect1-5-3-5-5"
       style="fill:none;stroke:#000000;stroke-width:0.2;stroke-linejoin:round"
       d="m 42.500255,450.99948 c -8.3643,0 -16.09454,2.65707 -22.44515,7.13962 l -16.8268796,-2.96726 -4.6886,26.59011 5.65857,0.99786 c -0.44137,2.34846 -0.69763,4.7627 -0.69763,7.23935 0,21.53907 17.4606296,39.0002 38.9996896,39.0002 H 203.50076 c 8.36443,0 16.095,-2.65693 22.44566,-7.1396 l 16.82585,2.96674 4.6886,-26.58959 -5.65805,-0.99787 c 0.44143,-2.34863 0.69763,-4.76305 0.69763,-7.23987 0,-21.53907 -17.46062,-38.99969 -38.99969,-38.99969 z" /><path
       id="rect1-5-3-5-5-6"
       style="fill:none;stroke:#000000;stroke-width:0.2;stroke-linejoin:round"
       d="m 42.500255,550.99993 c -8.3643,0 -16.09454,2.65707 -22.44515,7.13962 l -16.8268797,-2.96726 -4.6885999,26.59011 5.6585699,0.99786 c -0.44137,2.34846 -0.69763,4.7627 -0.69763,7.23935 0,21.53907 17.4606297,39.0002 38.9996897,39.0002 H 203.50076 c 8.36443,0 16.095,-2.65693 22.44566,-7.1396 l 16.82585,2.96674 4.68861,-26.58959 -5.65805,-0.99787 c 0.44142,-2.34863 0.69763,-4.76305 0.69763,-7.23987 0,-21.53907 -17.46062,-38.99969 -38.9997,-38.99969 z" /><path
       id="rect3"
       style="fill-opacity:0;stroke:#ff0000;stroke-width:0.2;stroke-linejoin:round"
       d="m 240.68342,202.11925 2.95442,0.52095 -2.95202,16.74173 -2.95442,-0.52095 z" /><path
       id="rect3-6"
       style="fill-opacity:0;stroke:#ff0000;stroke-width:0.2;stroke-linejoin:round"
       d="m 5.3143655,160.61734 2.95442,0.52096 -2.95202,16.74173 -2.95442,-0.52096 z" /><path
       style="fill:#000000;fill-opacity:0;stroke:#0000ff;stroke-width:0.2;stroke-linejoin:round"
       d="m 107.33491,174.03683 -14.576053,-2.57015 -4.514861,25.605 5.801924,1.02304"
       id="path4"
       sodipodi:nodetypes="cccc" /><path
       style="fill:#000000;fill-opacity:0;stroke:#0000ff;stroke-width:0.2;stroke-linejoin:round"
       d="m 151.94415,181.90265 5.81201,1.02481 -4.51485,25.60499 -14.44611,-2.54723"
       id="path5"
       sodipodi:nodetypes="cccc" /><path
       id="rect34-6-4-4"
       style="fill-opacity:0;stroke:#d0d000;stroke-width:0.2;stroke-linejoin:round"
       d="m 92.758767,471.46636 64.997303,11.46078 -4.51485,25.605 -64.997311,-11.46078 z"
       sodipodi:nodetypes="ccccc" /><path
       id="rect23-7-4"
       style="fill:none;stroke:#ff0000;stroke-width:0.2;stroke-linejoin:round"
       d="m 215.50009,384.99936 h 3 v 10 h -3 z" /><path
       id="rect24-42-4"
       style="fill:none;stroke:#ff0000;stroke-width:0.2;stroke-linejoin:round"
       d="m 27.500085,384.99936 h 3 v 10 h -3 z" /><path
       id="rect25-0-7"
       style="fill:none;stroke:#ff0000;stroke-width:0.2;stroke-linejoin:round"
       d="m 29.000085,414.99936 h 10 v 3 h -10 z" /><path
       id="rect26-8-2"
       style="fill:none;stroke:#ff0000;stroke-width:0.2;stroke-linejoin:round"
       d="m 207.00009,414.99936 h 10 v 3 h -10 z" /><path
       id="rect25-3-9-1"
       style="fill:none;stroke:#ff0000;stroke-width:0.2;stroke-linejoin:round"
       d="m 29.000085,361.99936 h 10 v 3 h -10 z" /><path
       id="rect26-0-5-8"
       style="fill:none;stroke:#ff0000;stroke-width:0.2;stroke-linejoin:round"
       d="m 207.00009,361.99936 h 10 v 3 h -10 z"
       sodipodi:nodetypes="ccccc" /><path
       id="rect32-7-9-9-0"
       style="fill-opacity:0;stroke:#ff0000;stroke-width:0.2;stroke-linejoin:round"
       d="m 93.5,373.99936 v 32.00011 h 59 v -32.00011 z"
       sodipodi:nodetypes="ccccc" /><path
       id="rect39-3-1"
       style="fill-opacity:0;stroke:#ff0000;stroke-width:0.2;stroke-linejoin:round"
       d="m 164.00009,392.49936 h 3 v 10 h -3 z" /><path
       id="rect40-6-7"
       style="fill-opacity:0;stroke:#ff0000;stroke-width:0.2;stroke-linejoin:round"
       d="m 79.000085,376.7283 h 3 v 10 h -3 z" /><path
       id="rect30-4-2"
       style="fill-opacity:0;stroke:#ff0000;stroke-width:0.2;stroke-linejoin:round"
       d="m 240.07565,405.56609 2.95442,0.52094 -1.73648,9.84808 -2.95443,-0.52094 z" /><path
       id="rect31-2-3"
       style="fill-opacity:0;stroke:#ff0000;stroke-width:0.2;stroke-linejoin:round"
       d="m 4.7065927,364.06417 2.954424,0.52095 -1.736482,9.84808 -2.954424,-0.52095 z" /><path
       id="rect27-7-4-2-8"
       style="fill:none;stroke:#ff0000;stroke-width:0.2;stroke-linejoin:round"
       d="m 27.50005,462.99936 h 3 v 20 h -3 z"
       sodipodi:nodetypes="ccccc" /><path
       id="rect27-9-4-1"
       style="fill:none;stroke:#ff0000;stroke-width:0.2;stroke-linejoin:round"
       d="m 215.50005,496.99936 h 3 v 20 h -3 z"
       sodipodi:nodetypes="ccccc" /><path
       id="rect28-19-3"
       style="fill:none;stroke:#ff0000;stroke-width:0.2;stroke-linejoin:round"
       d="m 113.00005,514.99936 h 20 v 3 h -20 z" /><path
       id="rect29-9-0"
       style="fill:none;stroke:#ff0000;stroke-width:0.2;stroke-linejoin:round"
       d="m 113.00005,461.99936 h 20 v 3 h -20 z" /><path
       id="rect32-7-8-2"
       style="fill-opacity:0;stroke:#ff0000;stroke-width:0.2;stroke-linejoin:round"
       d="m 93.5,473.99927 v 32.00011 h 59 v -32.00011 z"
       sodipodi:nodetypes="ccccc" /><path
       id="rect41-5-6"
       style="fill-opacity:0;stroke:#ff0000;stroke-width:0.2;stroke-linejoin:round"
       d="m 79.000051,473.22835 h 3 v 17 h -3 z"
       sodipodi:nodetypes="ccccc" /><path
       id="rect42-8-4"
       style="fill-opacity:0;stroke:#ff0000;stroke-width:0.2;stroke-linejoin:round"
       d="m 164.00005,488.99944 h 3 v 17 h -3 z"
       sodipodi:nodetypes="ccccc" /><circle
       style="fill:#000000;fill-opacity:0;stroke:#ff0000;stroke-width:0.2;stroke-linejoin:round;stroke-dasharray:none"
       id="path32-8-2-4-5-1-7"
       cx="18.856665"
       cy="371.63635"
       r="5" /><circle
       style="fill:#000000;fill-opacity:0;stroke:#ff0000;stroke-width:0.2;stroke-linejoin:round;stroke-dasharray:none"
       id="path32-8-2-4-5-4-1"
       cx="227.14352"
       cy="408.36298"
       r="5" /><path
       id="rect23-7-4-2"
       style="fill:none;stroke:#ff0000;stroke-width:0.2;stroke-linejoin:round"
       d="m 30.500397,684.99961 h -3 v 10 h 3 z" /><path
       id="rect24-42-4-2"
       style="fill:none;stroke:#ff0000;stroke-width:0.2;stroke-linejoin:round"
       d="m 218.50039,684.99961 h -3 v 10 h 3 z" /><path
       id="rect25-0-7-4"
       style="fill:none;stroke:#ff0000;stroke-width:0.2;stroke-linejoin:round"
       d="m 217.00039,714.99961 h -10 v 3 h 10 z" /><path
       id="rect26-8-2-3"
       style="fill:none;stroke:#ff0000;stroke-width:0.2;stroke-linejoin:round"
       d="m 39.000397,714.99961 h -10 v 3 h 10 z" /><path
       id="rect25-3-9-1-8"
       style="fill:none;stroke:#ff0000;stroke-width:0.2;stroke-linejoin:round"
       d="m 217.00039,661.99961 h -10 v 3 h 10 z" /><path
       id="rect26-0-5-8-9"
       style="fill:none;stroke:#ff0000;stroke-width:0.2;stroke-linejoin:round"
       d="m 39.000397,661.99961 h -10 v 3 h 10 z"
       sodipodi:nodetypes="ccccc" /><path
       id="rect32-7-9-9-0-5"
       style="fill-opacity:0;stroke:#ff0000;stroke-width:0.2;stroke-linejoin:round"
       d="m 152.50048,673.99961 v 32.00011 H 93.500487 v -32.00011 z"
       sodipodi:nodetypes="ccccc" /><path
       id="rect39-3-1-7"
       style="fill-opacity:0;stroke:#ff0000;stroke-width:0.2;stroke-linejoin:round"
       d="m 82.000397,692.49961 h -3 v 10 h 3 z" /><path
       id="rect40-6-7-0"
       style="fill-opacity:0;stroke:#ff0000;stroke-width:0.2;stroke-linejoin:round"
       d="m 167.00039,676.72855 h -3 v 10 h 3 z" /><path
       id="rect30-4-2-0"
       style="fill-opacity:0;stroke:#ff0000;stroke-width:0.2;stroke-linejoin:round"
       d="m 5.924837,705.56634 -2.95442,0.52094 1.73648,9.84808 2.95443,-0.52094 z" /><path
       id="rect31-2-3-8"
       style="fill-opacity:0;stroke:#ff0000;stroke-width:0.2;stroke-linejoin:round"
       d="m 241.29389,664.06442 -2.95443,0.52095 1.73648,9.84808 2.95443,-0.52095 z" /><circle
       style="fill:#000000;fill-opacity:0;stroke:#ff0000;stroke-width:0.2;stroke-linejoin:round;stroke-dasharray:none"
       id="path32-8-2-4-5-1-7-4"
       cx="-227.14381"
       cy="671.6366"
       r="5"
       transform="scale(-1,1)" /><circle
       style="fill:#000000;fill-opacity:0;stroke:#ff0000;stroke-width:0.2;stroke-linejoin:round;stroke-dasharray:none"
       id="path32-8-2-4-5-4-1-6"
       cx="-18.856968"
       cy="708.36322"
       r="5"
       transform="scale(-1,1)" /><circle
       style="fill:#000000;fill-opacity:0;stroke:#ff0000;stroke-width:0.2;stroke-linejoin:round;stroke-dasharray:none"
       id="path32-8-2-4-5-1-5-4"
       cx="18.856575"
       cy="471.63605"
       r="5" /><circle
       style="fill:#000000;fill-opacity:0;stroke:#ff0000;stroke-width:0.2;stroke-linejoin:round;stroke-dasharray:none"
       id="path32-8-2-4-5-4-3-1"
       cx="227.14343"
       cy="508.36267"
       r="5" /><path
       id="rect3-9"
       style="fill-opacity:0;stroke:#ff0000;stroke-width:0.2;stroke-linejoin:round"
       d="m 240.68333,502.11893 2.95442,0.52095 -2.95202,16.74173 -2.95442,-0.52095 z" /><path
       id="rect3-6-1"
       style="fill-opacity:0;stroke:#ff0000;stroke-width:0.2;stroke-linejoin:round"
       d="m 5.3142757,460.61702 2.95442,0.52096 -2.95202,16.74173 -2.95442,-0.52096 z" /><path
       style="fill:#000000;fill-opacity:0;stroke:#0000ff;stroke-width:0.2;stroke-linejoin:round"
       d="m 107.33482,474.03651 -14.576053,-2.57015 -4.51486,25.605 5.227407,0.92173"
       id="path4-5"
       sodipodi:nodetypes="cccc" /><path
       style="fill:#000000;fill-opacity:0;stroke:#0000ff;stroke-width:0.2;stroke-linejoin:round"
       d="m 152.53275,482.00613 5.22332,0.92101 -4.51485,25.60499 -14.44611,-2.54723"
       id="path5-2"
       sodipodi:nodetypes="cccc" /><path
       id="rect32-7-8-2-1"
       style="fill-opacity:0;stroke:#ff0000;stroke-width:0.2;stroke-linejoin:round"
       d="m 93.499997,573.99973 v 32.00011 H 152.5 v -32.00011 z"
       sodipodi:nodetypes="ccccc" /><path
       style="fill:#000000;fill-opacity:0;stroke:#0000ff;stroke-width:0.2;stroke-linejoin:round"
       d="m 107.33481,574.03697 -14.576043,-2.57015 -4.51486,25.605 5.2274,0.92173"
       id="path4-5-2"
       sodipodi:nodetypes="cccc" /><path
       style="fill:#000000;fill-opacity:0;stroke:#0000ff;stroke-width:0.2;stroke-linejoin:round"
       d="m 152.53274,582.00659 5.22332,0.92101 -4.51485,25.60499 -14.44611,-2.54723"
       id="path5-2-7"
       sodipodi:nodetypes="cccc" /><path
       id="rect27-7-4-2-8-3"
       style="fill:none;stroke:#ff0000;stroke-width:0.2;stroke-linejoin:round"
       d="m 27.50005,562.99982 h 3 v 20 h -3 z"
       sodipodi:nodetypes="ccccc" /><path
       id="rect27-9-4-1-4"
       style="fill:none;stroke:#ff0000;stroke-width:0.2;stroke-linejoin:round"
       d="m 215.50005,596.99982 h 3 v 20 h -3 z"
       sodipodi:nodetypes="ccccc" /><path
       id="rect28-19-3-1"
       style="fill:none;stroke:#ff0000;stroke-width:0.2;stroke-linejoin:round"
       d="m 113.00005,614.99982 h 20 v 3 h -20 z" /><path
       id="rect29-9-0-6"
       style="fill:none;stroke:#ff0000;stroke-width:0.2;stroke-linejoin:round"
       d="m 113.00005,561.99982 h 20 v 3 h -20 z" /><path
       id="rect41-5-6-5"
       style="fill-opacity:0;stroke:#ff0000;stroke-width:0.2;stroke-linejoin:round"
       d="m 79.000051,573.22881 h 3 v 17 h -3 z"
       sodipodi:nodetypes="ccccc" /><path
       id="rect42-8-4-1"
       style="fill-opacity:0;stroke:#ff0000;stroke-width:0.2;stroke-linejoin:round"
       d="m 164.00005,588.9999 h 3 v 17 h -3 z"
       sodipodi:nodetypes="ccccc" /><circle
       style="fill:#000000;fill-opacity:0;stroke:#ff0000;stroke-width:0.2;stroke-linejoin:round;stroke-dasharray:none"
       id="path32-8-2-4-5-1-5-4-9"
       cx="18.856575"
       cy="571.6366"
       r="5" /><circle
       style="fill:#000000;fill-opacity:0;stroke:#ff0000;stroke-width:0.2;stroke-linejoin:round;stroke-dasharray:none"
       id="path32-8-2-4-5-4-3-1-5"
       cx="227.14343"
       cy="608.36322"
       r="5" /><path
       id="rect3-9-1"
       style="fill-opacity:0;stroke:#ff0000;stroke-width:0.2;stroke-linejoin:round"
       d="m 240.68333,602.11939 2.95442,0.52095 -2.95202,16.74173 -2.95442,-0.52095 z" /><path
       id="rect3-6-1-4"
       style="fill-opacity:0;stroke:#ff0000;stroke-width:0.2;stroke-linejoin:round"
       d="m 5.3142764,560.61748 2.95442,0.52096 -2.95202,16.74173 -2.95442,-0.52096 z" /><g
       inkscape:label="Hershey Text"
       style="fill:none;stroke:#0000ff;stroke-linecap:round;stroke-linejoin:round"
       id="g80"
       transform="translate(-71.819729,-204.53879)"><g
         transform="translate(168.824,857.768)"
         id="g79"
         style="stroke:#0000ff"><path
           d="M 220,662 V 0 M 220,662 472,0 M 724,662 472,0 M 724,662 V 0"
           style="stroke:#0000ff;stroke-width:0.6459in"
           transform="scale(0.00705556,-0.00705556)"
           id="path6" /><path
           d="M 346,441 284,410 220,346 189,252 V 189 L 220,94.5 284,31.5 346,0 h 95 l 63,31.5 63,63 31,94.5 v 63 l -31,94 -63,64 -63,31 h -95"
           style="stroke:#0000ff;stroke-width:0.6459in"
           transform="matrix(0.00705556,0,0,-0.00705556,5.334,0)"
           id="path59" /><path
           d="M 567,662 V 0 m 0,346 -63,64 -63,31 H 346 L 284,410 220,346 189,252 V 189 L 220,94.5 284,31.5 346,0 h 95 l 63,31.5 63,63"
           style="stroke:#0000ff;stroke-width:0.6459in"
           transform="matrix(0.00705556,0,0,-0.00705556,9.55323,0)"
           id="path71" /><path
           d="M 220,441 V 126 L 252,31.5 315,0 h 95 l 62,31.5 95,94.5 m 0,315 V 0"
           style="stroke:#0000ff;stroke-width:0.6459in"
           transform="matrix(0.00705556,0,0,-0.00705556,13.7725,0)"
           id="path72" /><path
           d="M 220,662 V 0"
           style="stroke:#0000ff;stroke-width:0.6459in"
           transform="matrix(0.00705556,0,0,-0.00705556,17.9917,0)"
           id="path73" /><path
           d="m 189,252 h 378 v 63 l -31,63 -32,32 -63,31 H 346 L 284,410 220,346 189,252 V 189 L 220,94.5 284,31.5 346,0 h 95 l 63,31.5 63,63"
           style="stroke:#0000ff;stroke-width:0.6459in"
           transform="matrix(0.00705556,0,0,-0.00705556,19.7697,0)"
           id="path74" /><path
           d="m 220,504 v 32 l 32,62 32,32 62,32 h 126 l 64,-32 31,-32 31,-62 V 472 L 567,410 504,315 189,0 h 441"
           style="stroke:#0000ff;stroke-width:0.6459in"
           transform="matrix(0.00705556,0,0,-0.00705556,26.4372,0)"
           id="path75" /><path
           d="M 504,662 189,220 H 662 M 504,662 V 0"
           style="stroke:#0000ff;stroke-width:0.6459in"
           transform="matrix(0.00705556,0,0,-0.00705556,30.8822,0)"
           id="path76" /><path
           d="m 346,662 -94,-32 -32,-63 v -63 l 32,-63 63,-31 126,-32 95,-32 62,-62 32,-64 V 126 L 598,63 567,31.5 472,0 H 346 L 252,31.5 220,63 189,126 v 94 l 31,64 64,62 94,32 126,32 63,31 31,63 v 63 l -31,63 -95,32 H 346"
           style="stroke:#0000ff;stroke-width:0.6459in"
           transform="matrix(0.00705556,0,0,-0.00705556,35.3272,0)"
           id="path77" /><path
           d="M 158,441 346,0 M 536,441 346,0"
           style="stroke:#0000ff;stroke-width:0.6459in"
           transform="matrix(0.00705556,0,0,-0.00705556,42.4392,0)"
           id="path78" /><path
           d="m 220,504 v 32 l 32,62 32,32 62,32 h 126 l 64,-32 31,-32 31,-62 V 472 L 567,410 504,315 189,0 h 441"
           style="stroke:#0000ff;stroke-width:0.6459in"
           transform="matrix(0.00705556,0,0,-0.00705556,45.9952,0)"
           id="path79" /></g></g><g
       inkscape:label="Hershey Text"
       style="fill:none;stroke:#0000ff;stroke-linecap:round;stroke-linejoin:round"
       id="g59"
       transform="matrix(0.52983681,0,0,0.52983681,1.1625557,340.52568)"><g
         transform="translate(159.514,731.904)"
         id="g58"
         style="stroke:#0000ff"><path
           d="M 220,662 V 0 m 0,315 95,95 63,31 h 94 l 64,-31 31,-95 V 0"
           style="stroke:#0000ff;stroke-width:0.6459in"
           transform="scale(0.00705556,-0.00705556)"
           id="path8" /><path
           d="M 252,662 V 126 L 284,31.5 346,0 h 64 M 158,441 h 220"
           style="stroke:#0000ff;stroke-width:0.6459in"
           transform="matrix(0.00705556,0,0,-0.00705556,4.21922,0)"
           id="path12" /><path
           d="M 252,662 V 126 L 284,31.5 346,0 h 64 M 158,441 h 220"
           style="stroke:#0000ff;stroke-width:0.6459in"
           transform="matrix(0.00705556,0,0,-0.00705556,6.88623,0)"
           id="path16" /><path
           d="m 220,441 v -661 m 0,566 64,64 62,31 h 95 l 63,-31 63,-64 31,-94 V 189 L 567,94.5 504,31.5 441,0 h -95 l -62,31.5 -64,63"
           style="stroke:#0000ff;stroke-width:0.6459in"
           transform="matrix(0.00705556,0,0,-0.00705556,9.55323,0)"
           id="path19" /><path
           d="m 536,346 -32,64 -94,31 h -95 l -95,-31 -31,-64 31,-62 64,-32 157,-32 63,-31 32,-63 V 94.5 L 504,31.5 410,0 h -95 l -95,31.5 -31,63"
           style="stroke:#0000ff;stroke-width:0.6459in"
           transform="matrix(0.00705556,0,0,-0.00705556,13.7725,0)"
           id="path20" /><path
           d="m 220,378 -31,-32 31,-31 32,31 -32,32 m 0,-220 -31,-32 31,-31.5 32,31.5 -32,32"
           style="stroke:#0000ff;stroke-width:0.6459in"
           transform="matrix(0.00705556,0,0,-0.00705556,17.5542,0)"
           id="path23" /><path
           d="M 724,788 158,-220"
           style="stroke:#0000ff;stroke-width:0.6459in"
           transform="matrix(0.00705556,0,0,-0.00705556,19.3322,0)"
           id="path25" /><path
           d="M 724,788 158,-220"
           style="stroke:#0000ff;stroke-width:0.6459in"
           transform="matrix(0.00705556,0,0,-0.00705556,24.2217,0)"
           id="path27" /><path
           d="M 220,662 V 0 M 536,441 220,126 M 346,252 567,0"
           style="stroke:#0000ff;stroke-width:0.6459in"
           transform="matrix(0.00705556,0,0,-0.00705556,29.1112,0)"
           id="path29" /><path
           d="M 567,441 V 0 m 0,346 -63,64 -63,31 H 346 L 284,410 220,346 189,252 V 189 L 220,94.5 284,31.5 346,0 h 95 l 63,31.5 63,63"
           style="stroke:#0000ff;stroke-width:0.6459in"
           transform="matrix(0.00705556,0,0,-0.00705556,32.893,0)"
           id="path31" /><path
           d="M 252,662 V 126 L 284,31.5 346,0 h 64 M 158,441 h 220"
           style="stroke:#0000ff;stroke-width:0.6459in"
           transform="matrix(0.00705556,0,0,-0.00705556,37.1122,0)"
           id="path32" /><path
           d="M 346,441 284,410 220,346 189,252 V 189 L 220,94.5 284,31.5 346,0 h 95 l 63,31.5 63,63 31,94.5 v 63 l -31,94 -63,64 -63,31 h -95"
           style="stroke:#0000ff;stroke-width:0.6459in"
           transform="matrix(0.00705556,0,0,-0.00705556,39.7792,0)"
           id="path33" /><path
           d="M 220,284 H 788"
           style="stroke:#0000ff;stroke-width:0.6459in"
           transform="matrix(0.00705556,0,0,-0.00705556,43.9985,0)"
           id="path34" /><path
           d="M 220,441 V 0 m 0,315 95,95 63,31 h 94 l 64,-31 31,-95 V 0 m 0,315 95,95 62,31 h 95 l 63,-31 32,-95 V 0"
           style="stroke:#0000ff;stroke-width:0.6459in"
           transform="matrix(0.00705556,0,0,-0.00705556,49.777,0)"
           id="path35" /><path
           d="m 189,662 31,-32 32,32 -32,31 -31,-31 M 220,441 V 0"
           style="stroke:#0000ff;stroke-width:0.6459in"
           transform="matrix(0.00705556,0,0,-0.00705556,56.4445,0)"
           id="path36" /><path
           d="M 220,441 V 0 m 0,315 95,95 63,31 h 94 l 64,-31 31,-95 V 0"
           style="stroke:#0000ff;stroke-width:0.6459in"
           transform="matrix(0.00705556,0,0,-0.00705556,58.2225,0)"
           id="path37" /><path
           d="m 189,662 31,-32 32,32 -32,31 -31,-31 M 220,441 V 0"
           style="stroke:#0000ff;stroke-width:0.6459in"
           transform="matrix(0.00705556,0,0,-0.00705556,62.4417,0)"
           id="path38" /><path
           d="M 567,662 V 0 m 0,346 -63,64 -63,31 H 346 L 284,410 220,346 189,252 V 189 L 220,94.5 284,31.5 346,0 h 95 l 63,31.5 63,63"
           style="stroke:#0000ff;stroke-width:0.6459in"
           transform="matrix(0.00705556,0,0,-0.00705556,64.2197,0)"
           id="path39" /><path
           d="M 220,284 H 788"
           style="stroke:#0000ff;stroke-width:0.6459in"
           transform="matrix(0.00705556,0,0,-0.00705556,68.4389,0)"
           id="path40" /><path
           d="M 410,662 H 346 L 284,630 252,536 V 0 m -94,441 h 220"
           style="stroke:#0000ff;stroke-width:0.6459in"
           transform="matrix(0.00705556,0,0,-0.00705556,74.2174,0)"
           id="path41" /><path
           d="M 220,441 V 0 m 0,252 32,94 63,64 63,31 h 94"
           style="stroke:#0000ff;stroke-width:0.6459in"
           transform="matrix(0.00705556,0,0,-0.00705556,76.8844,0)"
           id="path42" /><path
           d="m 220,158 -31,-32 31,-31.5 32,31.5 -32,32"
           style="stroke:#0000ff;stroke-width:0.6459in"
           transform="matrix(0.00705556,0,0,-0.00705556,79.7772,0)"
           id="path43" /><path
           d="M 410,662 H 346 L 284,630 252,536 V 0 m -94,441 h 220"
           style="stroke:#0000ff;stroke-width:0.6459in"
           transform="matrix(0.00705556,0,0,-0.00705556,81.5552,0)"
           id="path44" /><path
           d="M 346,441 284,410 220,346 189,252 V 189 L 220,94.5 284,31.5 346,0 h 95 l 63,31.5 63,63 31,94.5 v 63 l -31,94 -63,64 -63,31 h -95"
           style="stroke:#0000ff;stroke-width:0.6459in"
           transform="matrix(0.00705556,0,0,-0.00705556,84.2222,0)"
           id="path45" /><path
           d="M 220,441 V 0 m 0,252 32,94 63,64 63,31 h 94"
           style="stroke:#0000ff;stroke-width:0.6459in"
           transform="matrix(0.00705556,0,0,-0.00705556,88.4414,0)"
           id="path46" /><path
           d="M 220,441 V 126 L 252,31.5 315,0 h 95 l 62,31.5 95,94.5 m 0,315 V 0"
           style="stroke:#0000ff;stroke-width:0.6459in"
           transform="matrix(0.00705556,0,0,-0.00705556,91.3342,0)"
           id="path47" /><path
           d="M 220,441 V 0 m 0,315 95,95 63,31 h 94 l 64,-31 31,-95 V 0 m 0,315 95,95 62,31 h 95 l 63,-31 32,-95 V 0"
           style="stroke:#0000ff;stroke-width:0.6459in"
           transform="matrix(0.00705556,0,0,-0.00705556,95.5534,0)"
           id="path48" /><path
           d="M 567,441 V 0 m 0,346 -63,64 -63,31 H 346 L 284,410 220,346 189,252 V 189 L 220,94.5 284,31.5 346,0 h 95 l 63,31.5 63,63"
           style="stroke:#0000ff;stroke-width:0.6459in"
           transform="matrix(0.00705556,0,0,-0.00705556,102.221,0)"
           id="path49" /><path
           d="m 567,346 -63,64 -63,31 H 346 L 284,410 220,346 189,252 V 189 L 220,94.5 284,31.5 346,0 h 95 l 63,31.5 63,63"
           style="stroke:#0000ff;stroke-width:0.6459in"
           transform="matrix(0.00705556,0,0,-0.00705556,106.44,0)"
           id="path50" /><path
           d="M 252,662 V 126 L 284,31.5 346,0 h 64 M 158,441 h 220"
           style="stroke:#0000ff;stroke-width:0.6459in"
           transform="matrix(0.00705556,0,0,-0.00705556,110.441,0)"
           id="path51" /><path
           d="m 189,662 31,-32 32,32 -32,31 -31,-31 M 220,441 V 0"
           style="stroke:#0000ff;stroke-width:0.6459in"
           transform="matrix(0.00705556,0,0,-0.00705556,113.108,0)"
           id="path52" /><path
           d="M 410,662 H 346 L 284,630 252,536 V 0 m -94,441 h 220"
           style="stroke:#0000ff;stroke-width:0.6459in"
           transform="matrix(0.00705556,0,0,-0.00705556,114.886,0)"
           id="path53" /><path
           d="m 220,158 -31,-32 31,-31.5 32,31.5 -32,32"
           style="stroke:#0000ff;stroke-width:0.6459in"
           transform="matrix(0.00705556,0,0,-0.00705556,117.553,0)"
           id="path54" /><path
           d="m 567,346 -63,64 -63,31 H 346 L 284,410 220,346 189,252 V 189 L 220,94.5 284,31.5 346,0 h 95 l 63,31.5 63,63"
           style="stroke:#0000ff;stroke-width:0.6459in"
           transform="matrix(0.00705556,0,0,-0.00705556,119.331,0)"
           id="path55" /><path
           d="M 346,441 284,410 220,346 189,252 V 189 L 220,94.5 284,31.5 346,0 h 95 l 63,31.5 63,63 31,94.5 v 63 l -31,94 -63,64 -63,31 h -95"
           style="stroke:#0000ff;stroke-width:0.6459in"
           transform="matrix(0.00705556,0,0,-0.00705556,123.331,0)"
           id="path56" /><path
           d="M 220,441 V 0 m 0,315 95,95 63,31 h 94 l 64,-31 31,-95 V 0 m 0,315 95,95 62,31 h 95 l 63,-31 32,-95 V 0"
           style="stroke:#0000ff;stroke-width:0.6459in"
           transform="matrix(0.00705556,0,0,-0.00705556,127.55,0)"
           id="path57" /><path
           d="M 724,788 158,-220"
           style="stroke:#0000ff;stroke-width:0.6459in"
           transform="matrix(0.00705556,0,0,-0.00705556,134.218,0)"
           id="path58" /></g></g><path
       id="rect1-5-3-3"
       style="fill:none;stroke:#000000;stroke-width:0.2;stroke-linejoin:round"
       d="m 3.22826,55.172682 244.23233,43.06476 -4.6885,26.589798 L -1.460242,81.762492 Z"
       sodipodi:nodetypes="ccccc" /><path
       id="path1-1"
       style="fill:none;fill-opacity:0;stroke:#ff0000;stroke-width:0.2;stroke-linejoin:round"
       d="M 440.99996 45.999776 C 429.98744 45.999776 419.94549 50.073585 412.22807 56.759843 L 403.2281 55.17286 L 397.01969 90.384147 C 397.2283 114.5057 416.82913 134.00009 440.99996 134.00009 L 605.00028 134.00009 C 616.0128 134.00009 626.05474 129.92629 633.77217 123.24002 L 642.77214 124.82701 L 648.98054 89.615719 C 648.77165 65.49439 629.17094 45.999776 605.00028 45.999776 L 440.99996 45.999776 z " /><path
       id="path1-1-9"
       style="fill:none;fill-opacity:0;stroke:#000000;stroke-width:0.2;stroke-linejoin:round"
       d="m 41.000081,345.99943 c -11.01252,0 -21.05447,4.0738 -28.77189,10.76006 l -8.99997,-1.58698 -6.20841,35.21129 c 0.20861,24.12155 19.80944,43.61594 43.98027,43.61594 H 205.0004 c 11.01252,0 21.05446,-4.0738 28.77189,-10.76007 l 8.99997,1.58699 6.2084,-35.21129 c -0.20889,-24.12133 -19.8096,-43.61594 -43.98026,-43.61594 z" /><path
       id="path1-1-9-0"
       style="fill:none;fill-opacity:0;stroke:#000000;stroke-width:0.2;stroke-linejoin:round"
       d="m 205.00092,645.99968 c 11.01252,0 21.05447,4.0738 28.77189,10.76006 l 8.99997,-1.58698 6.20841,35.21129 c -0.20861,24.12155 -19.80944,43.61594 -43.98027,43.61594 H 41.000597 c -11.01252,0 -21.05446,-4.0738 -28.77189,-10.76007 l -8.99997,1.58699 -6.2084,-35.21129 c 0.20889,-24.12133 19.8096,-43.61594 43.98026,-43.61594 z" /></g></svg>
