<?xml version="1.0" encoding="UTF-8" standalone="no"?>
<!-- Created with Inkscape (http://www.inkscape.org/) -->

<svg
   width="305mm"
   height="800mm"
   viewBox="0 0 305 800"
   version="1.1"
   id="svg1"
   xml:space="preserve"
   inkscape:version="1.3.2 (091e20e, 2023-11-25, custom)"
   sodipodi:docname="LaserCut Module 248 Pont.svg"
   xmlns:inkscape="http://www.inkscape.org/namespaces/inkscape"
   xmlns:sodipodi="http://sodipodi.sourceforge.net/DTD/sodipodi-0.dtd"
   xmlns="http://www.w3.org/2000/svg"
   xmlns:svg="http://www.w3.org/2000/svg"><sodipodi:namedview
     id="namedview1"
     pagecolor="#ffffff"
     bordercolor="#000000"
     borderopacity="0.25"
     inkscape:showpageshadow="2"
     inkscape:pageopacity="0.0"
     inkscape:pagecheckerboard="0"
     inkscape:deskcolor="#d1d1d1"
     inkscape:document-units="mm"
     inkscape:zoom="0.5"
     inkscape:cx="1757"
     inkscape:cy="1434"
     inkscape:window-width="3807"
     inkscape:window-height="1328"
     inkscape:window-x="1288"
     inkscape:window-y="572"
     inkscape:window-maximized="0"
     inkscape:current-layer="layer1" /><defs
     id="defs1"><pattern
       id="EMFhbasepattern"
       patternUnits="userSpaceOnUse"
       width="6"
       height="6"
       x="0"
       y="0" /></defs><g
     inkscape:label="Calque 1"
     inkscape:groupmode="layer"
     id="layer1"><path
       id="rect1"
       style="fill:none;stroke:#000000;stroke-width:0.2;stroke-linejoin:round"
       d="M 0,0 H 248 V 31 H 0 Z"
       sodipodi:nodetypes="ccccc" /><path
       id="rect1-8"
       style="fill:none;stroke:#000000;stroke-width:0.2;stroke-linejoin:round"
       d="M 4.9937983,552.06463 248.7298,597.85474 243.006,628.32175 -0.73000167,582.53164 Z"
       sodipodi:nodetypes="ccccc" /><path
       id="rect1-8-1"
       style="fill:none;stroke:#000000;stroke-width:0.2;stroke-linejoin:round"
       d="M 62.121623 362.79746 L 191.53127 387.10936 " /><path
       id="path20"
       style="fill:none;stroke:#000000;stroke-width:0.2;stroke-linejoin:round"
       d="m 56.39832,393.26457 -57.1283217,-10.73256 5.7238,-30.46701 v 0 l 57.1278247,10.73246 z" /><path
       id="path19"
       style="fill:none;stroke:#000000;stroke-width:0.2;stroke-linejoin:round"
       d="M 185.80795 417.57646 L 56.39832 393.26457 " /><path
       id="path18"
       style="fill:none;stroke:#000000;stroke-width:0.2;stroke-linejoin:round"
       d="m 185.80795,417.57646 57.19805,10.74566 5.7238,-30.46701 -57.19853,-10.74575 z" /><circle
       style="fill:none;stroke:#ff0000;stroke-width:0.2;stroke-linejoin:round"
       id="path11"
       cx="18.25"
       cy="15.5"
       r="1" /><circle
       style="fill:none;stroke:#ff0000;stroke-width:0.2;stroke-linejoin:round"
       id="path11-8"
       cx="229.75"
       cy="15.5"
       r="1" /><path
       id="path36"
       style="fill:none;stroke:#ff8000;stroke-width:0.2;stroke-linejoin:round"
       d="m 39.999998,630.00008 c -22.0914,0 -39.9999996723796,-17.90863 -39.9999996723796,-40 0,-22.09137 17.9085996723796,-40 39.9999996723796,-40 H 208 c 22.0914,0 40,17.90863 40,40 v 0 0 c 0,22.09137 -17.9086,40 -40,40 z"
       sodipodi:nodetypes="ssssscsss" /><path
       id="path6"
       style="fill:none;stroke:#ff8000;stroke-width:0.2;stroke-linejoin:round"
       d="m 51.999798,422 h -11.9998 v 0 C 22.326934,422 7.9999983,407.67305 7.9999983,390 c 0,-17.67305 14.3269357,-32 31.9999997,-32 H 64.02337 Z" /><path
       id="path4"
       style="fill:none;stroke:#ff8000;stroke-width:0.2;stroke-linejoin:round"
       d="M 183.97642,422.00001 208.0003,422 c 17.67308,0 32,-14.32693 32,-32 v 0 0 c 0,-17.67307 -14.32692,-32 -32,-32 h -12.00032 z" /><path
       id="path23-6-7-0-7-0-1-7-9"
       style="fill:none;stroke:#ff8000;stroke-width:0.2;stroke-linejoin:round"
       d="m 192.99976,281.5 -3e-5,3.50006 -2.99973,-1.1e-4 2e-5,10 2.99974,10e-5 -4e-5,23.00003 -2.99971,-1.6e-4 -1e-5,10.00045 3.00012,-4.5e-4 -1.8e-4,7.00018 8.00008,-2e-4 1.1e-4,-10.99988 7.99958,-1.1e-4 2.7e-4,-3.49996 2.99974,1.1e-4 -3e-5,-10.00027 -2.99964,4.2e-4 -3.1e-4,-3.50019 -7.99957,1.1e-4 -3e-4,-25.50013 z"
       sodipodi:nodetypes="ccccccccccccccccccccc" /><path
       id="path23-6-7-0-7-0-1-7-9-5"
       style="fill:none;stroke:#ff8000;stroke-width:0.2;stroke-linejoin:round"
       d="m 152.99976,281.5 -3e-5,3.50006 -2.99973,-1.1e-4 2e-5,10 2.99974,10e-5 -4e-5,29.00003 -2.99971,-1.6e-4 -1e-5,4.00045 3.00012,-4.5e-4 -1.8e-4,7.00018 8.00008,-2e-4 1.1e-4,-10.99988 7.99958,-1.1e-4 2.7e-4,-3.49996 2.99974,1.1e-4 -3e-5,-10.00027 -2.99964,4.2e-4 -3.1e-4,-3.50019 -7.99957,1.1e-4 -3e-4,-25.50013 z"
       sodipodi:nodetypes="ccccccccccccccccccccc" /><path
       style="fill:none;stroke:#ff8000;stroke-width:0.2;stroke-linejoin:round"
       d="m 323,520 v -8.5 h -3 v -10 h 3 V 493 h 8 v 5 h 8 v 3.5 h 3 v 10 h -3 v 3.5 h -8 v 5 z"
       id="path23-6-7-0-0"
       sodipodi:nodetypes="ccccccccccccccccc" /><path
       style="fill:none;stroke:#ff8000;stroke-width:0.2;stroke-linejoin:round"
       d="m 232.42868,329.84192 v -8.5 h -3 v -10 h 3 v -8.5 h 8 v 5 h 8 v 3.5 h 3 v 10 h -3 v 3.5 h -8 v 5 z"
       id="path23-6-7-0-0-1"
       sodipodi:nodetypes="ccccccccccccccccc" /><path
       style="fill:none;stroke:#ff8000;stroke-width:0.2;stroke-linejoin:round"
       d="M 263,489.5 V 485 h -5 v -10 h 5 v -10 h -5 v -10 h 5 v -5 h 8 v 5 h 6 v 5 h -3 v 10 h 3 v 15 h -6 v 4.5 z"
       id="path23-6-7-0-0-1-6"
       sodipodi:nodetypes="ccccccccccccccccccccc" /><path
       id="rect30"
       style="fill-opacity:0;stroke:#ff0000;stroke-width:0.2;stroke-linejoin:round"
       d="m 242,10.5 h 3 v 10 h -3 z" /><path
       id="rect31"
       style="fill-opacity:0;stroke:#ff0000;stroke-width:0.2;stroke-linejoin:round"
       d="m 3,10.5 h 3.0000007 v 10 H 3 Z" /><path
       id="rect32-7-2"
       style="fill-opacity:0;stroke:#ff0000;stroke-width:0.2;stroke-linejoin:round"
       d="M 199.00026 361.00019 L 199.00026 363.49978 L 196.99986 363.49978 L 196.99986 416.50016 L 199.00026 416.50016 L 199.00026 419.00026 L 216.00025 419.00026 L 216.00025 416.50016 L 223.50005 416.50016 L 223.50005 399.99987 L 226.49987 399.99987 L 226.49987 370.00015 L 223.50005 370.00015 L 223.50005 363.49978 L 216.00025 363.49978 L 216.00025 361.00019 L 199.00026 361.00019 z " /><path
       id="rect32-7-2-0"
       style="fill-opacity:0;stroke:#ff0000;stroke-width:0.2;stroke-linejoin:round"
       d="m 49,419.00002 v -2.49959 h 2.0004 V 363.50005 H 49 v -2.5001 H 32.00001 v 2.5001 h -7.4998 v 16.50029 h -2.99982 v 29.99972 h 2.99982 v 6.50037 h 7.4998 v 2.49959 z" /><path
       id="rect32-7-2-7"
       style="fill-opacity:0;stroke:#ff0000;stroke-width:0.2;stroke-linejoin:round"
       d="M 216.00011,561.00008 H 199 v 2.5 h -2 v 53 h 2 v 2.5001 h 17.00011 v -2.5001 H 223.5 v -16.5 h 3 v -10 h -3 v -10 h 3 v -10 h -3 v -6.5 h -7.49989 z"
       sodipodi:nodetypes="ccccccccccccccccccccc" /><path
       id="rect32-7-2-7-7"
       style="fill-opacity:0;stroke:#ff0000;stroke-width:0.2;stroke-linejoin:round"
       d="M 31.99989,619.00008 H 49 v -2.5 h 2 v -53 h -2 v -2.5001 H 31.99989 v 2.5001 H 24.5 v 16.5 h -3 v 10 h 3 v 10 h -3 v 10 h 3 v 6.5 h 7.49989 z"
       sodipodi:nodetypes="ccccccccccccccccccccc" /><circle
       style="fill:#000000;fill-opacity:0;stroke:#d0d000;stroke-width:0.2;stroke-linejoin:round;stroke-dasharray:none"
       id="path32"
       cx="227.93176"
       cy="409.71899"
       r="5" /><circle
       style="fill:#000000;fill-opacity:0;stroke:#d0d000;stroke-width:0.2;stroke-linejoin:round;stroke-dasharray:none"
       id="path32-8"
       cx="20.068113"
       cy="370.66815"
       r="5" /><path
       id="rect30-1-4"
       style="fill-opacity:0;stroke:#ff0000;stroke-width:0.2;stroke-linejoin:round"
       d="m 240.8943,607.06638 2.9484,0.55392 -1.8464,9.82806 -2.9484,-0.55391 z" /><path
       id="rect31-8-6"
       style="fill-opacity:0;stroke:#ff0000;stroke-width:0.2;stroke-linejoin:round"
       d="m 6.0034983,562.93802 2.9484,0.55391 -1.8464,9.82807 -2.9484,-0.55392 z" /><circle
       style="fill:#000000;fill-opacity:0;stroke:#d0d000;stroke-width:0.2;stroke-linejoin:round;stroke-dasharray:none"
       id="path32-90"
       cx="227.93176"
       cy="609.71863"
       r="5" /><circle
       style="fill:#000000;fill-opacity:0;stroke:#d0d000;stroke-width:0.2;stroke-linejoin:round;stroke-dasharray:none"
       id="path32-8-2"
       cx="20.068113"
       cy="570.66779"
       r="5" /><path
       id="rect38-1"
       style="fill-opacity:0;stroke:#ff00ff;stroke-width:0.2;stroke-linejoin:round"
       d="m 241.5405,403.62693 2.9484,0.55391 -3.1388,16.70772 -2.9484,-0.55392 z"
       sodipodi:nodetypes="ccccc" /><path
       id="rect39-5"
       style="fill-opacity:0;stroke:#ff00ff;stroke-width:0.2;stroke-linejoin:round"
       d="m 6.6496983,359.49856 2.9483997,0.55392 -3.1387997,16.70771 -2.9484,-0.55391 z"
       sodipodi:nodetypes="ccccc" /><path
       style="fill:#000000;fill-opacity:0;stroke:#ff0000;stroke-width:0.2;stroke-linejoin:round"
       d="M 385.2949,291.35181 349.42121,482.30379"
       id="path2-9-7"
       sodipodi:nodetypes="cc" /><path
       id="rect9-1"
       style="fill-opacity:0;stroke:#ff0000;stroke-width:0.2;stroke-linejoin:round"
       d="m 58.847279,369.30479 2.94842,0.55391 -3.13884,16.70771 -2.94842,-0.55391 z" /><path
       id="rect10-7"
       style="fill-opacity:0;stroke:#00a000;stroke-width:0.2;stroke-linejoin:round"
       d="m 106,247 v 9 l -66,0 v -9 z"
       sodipodi:nodetypes="ccccc" /><path
       style="fill:#000000;fill-opacity:0;stroke:#00a000;stroke-width:0.2;stroke-linejoin:round"
       d="m 48.12557,250.00006 10.000505,2e-5 -1.5e-4,2.9997 -9.999925,4e-4 z"
       id="path10-0"
       sodipodi:nodetypes="ccccc" /><path
       style="fill:#000000;fill-opacity:0;stroke:#00a000;stroke-width:0.2;stroke-linejoin:round"
       d="m 81.12598,250.00008 10.00001,-2e-5 -1.2e-4,2.99973 -9.99998,4e-5 z"
       id="path12-8" /><path
       id="rect9"
       style="fill-opacity:0;stroke:#ff0000;stroke-width:0.2;stroke-linejoin:round"
       d="m 189.27267,393.80751 2.94842,0.55349 -3.13884,16.70813 -2.94842,-0.55391 z"
       sodipodi:nodetypes="ccccc" /><path
       id="path20-45"
       style="fill:none;stroke:#000000;stroke-width:0.2;stroke-linejoin:round"
       d="M 4.9940104 452.06491 L -0.73018799 482.53179 L 8.5214437 484.26967 C 8.1849218 486.1299 8.0000285 488.04283 8.0000285 490.00007 C 8.0000285 507.67308 22.327114 522.00018 40.000142 522.00018 L 51.999927 522.00018 L 58.656885 486.56617 L 55.708228 486.01271 L 58.847054 469.30469 L 61.795711 469.85866 L 64.023482 457.99995 L 40.000142 457.99995 C 39.073992 457.99995 38.159215 458.04841 37.253023 458.12552 L 4.9940104 452.06491 z " /><path
       id="path18-5"
       style="fill:none;stroke:#000000;stroke-width:0.2;stroke-linejoin:round"
       d="M 195.99992 457.99995 L 189.27268 493.80758 L 192.22134 494.36104 L 189.082 511.06906 L 186.13386 510.51509 L 183.97637 522.00018 L 208.00022 522.00018 C 208.40001 522.00018 208.79616 521.98423 209.1924 521.96969 L 243.00584 528.32227 L 248.73004 497.85488 L 239.41174 496.10409 C 239.79366 494.12745 240.00034 492.08823 240.00034 490.00007 C 240.00034 472.32702 225.67328 457.99995 208.00022 457.99995 L 195.99992 457.99995 z " /><path
       id="path26"
       style="fill-opacity:0;stroke:#ff0000;stroke-width:0.2;stroke-linejoin:round;fill:none"
       d="M 51.000401 513.90008 L 51.0004 477.10025 " /><path
       id="path30"
       style="fill-opacity:0;stroke:#ff0000;stroke-width:0.2;stroke-linejoin:round;fill:none"
       d="M 24.500209 514.10006 L 24.50021 516.50043 L 32.00001 516.50043 L 32.00001 519.00002 L 49 519.00002 L 49 519.00002 L 49 516.50043 L 51.0004 516.50043 L 51.000401 514.10007 " /><path
       id="path27"
       style="fill-opacity:0;stroke:#ff0000;stroke-width:0.2;stroke-linejoin:round;fill:none"
       d="M 24.50021 477.10025 L 24.50021 480.00034 L 21.50039 480.00034 L 21.50039 510.00006 L 24.50021 510.00006 L 24.50021 513.90008 " /><path
       id="path24"
       style="fill-opacity:0;stroke:#ff0000;stroke-width:0.2;stroke-linejoin:round;fill:none"
       d="M 51.0004 476.90026 L 51.0004 463.50005 L 49 463.50005 L 49 460.99995 L 32.00001 460.99995 L 32.00001 463.50005 L 24.50021 463.50005 L 24.50021 476.90027 " /><circle
       style="fill:#000000;fill-opacity:0;stroke:#d0d000;stroke-width:0.2;stroke-linejoin:round;stroke-dasharray:none"
       id="path32-1"
       cx="227.93176"
       cy="509.71899"
       r="5" /><circle
       style="fill:#000000;fill-opacity:0;stroke:#d0d000;stroke-width:0.2;stroke-linejoin:round;stroke-dasharray:none"
       id="path32-8-6"
       cx="20.068113"
       cy="470.66815"
       r="5" /><path
       id="rect38-1-1"
       style="fill-opacity:0;stroke:#ff00ff;stroke-width:0.2;stroke-linejoin:round"
       d="m 241.5405,503.62693 2.9484,0.55391 -3.1388,16.70772 -2.9484,-0.55392 z"
       sodipodi:nodetypes="ccccc" /><path
       id="rect39-5-2"
       style="fill-opacity:0;stroke:#ff00ff;stroke-width:0.2;stroke-linejoin:round"
       d="m 6.6496983,459.49856 2.9484,0.55392 -3.1388,16.70771 -2.9484,-0.55391 z"
       sodipodi:nodetypes="ccccc" /><path
       id="path20-4"
       style="fill:none;stroke:#000000;stroke-width:0.2;stroke-linejoin:round"
       d="M -295.00628 352.06482 L -300.72996 382.53221 L -291.47833 384.27008 C -291.8148 386.13017 -291.99975 388.0429 -291.99975 389.99997 C -291.99975 407.67298 -277.67318 422.00008 -260.00015 422.00008 L -248.00037 422.00008 L -241.34341 386.56659 L -244.29155 386.01261 L -241.15272 369.30459 L -238.20458 369.85856 L -235.97681 357.99985 L -260.00015 357.99985 C -260.92648 357.99985 -261.84091 358.04829 -262.74727 358.12543 L -295.00628 352.06482 z " /><path
       id="path18-7"
       style="fill:none;stroke:#000000;stroke-width:0.2;stroke-linejoin:round"
       d="M -103.99985 357.99985 L -110.72709 393.80749 L -107.77895 394.36094 L -110.91778 411.06897 L -113.86592 410.51499 L -116.02341 422.00008 L -91.999552 422.00008 C -91.599641 422.00008 -91.203736 421.98414 -90.807377 421.96959 L -56.993937 428.32218 L -51.270256 397.8553 L -60.58855 396.1045 C -60.206567 394.12772 -59.999955 392.08833 -59.999955 389.99997 C -59.999955 372.32694 -74.326508 357.99985 -91.999552 357.99985 L -103.99985 357.99985 z " /><path
       id="rect32-7-2-9"
       style="fill-opacity:0;stroke:#ff0000;stroke-width:0.2;stroke-linejoin:round"
       d="M -100.99952 361.00019 L -100.99952 363.49978 L -102.99991 363.49978 L -102.99991 416.50016 L -100.99952 416.50016 L -100.99952 419.00026 L -83.999524 419.00026 L -83.999524 416.50016 L -76.499723 416.50016 L -76.499723 412.00999 A 5 5 0 0 0 -72.068469 414.71887 A 5 5 0 0 0 -67.068258 409.71918 A 5 5 0 0 0 -72.068469 404.71897 A 5 5 0 0 0 -76.499723 407.42836 L -76.499723 399.99987 L -73.499906 399.99987 L -73.499906 370.00015 L -76.499723 370.00015 L -76.499723 363.49978 L -83.999524 363.49978 L -83.999524 361.00019 L -100.99952 361.00019 z " /><path
       id="rect32-7-2-0-1"
       style="fill-opacity:0;stroke:#ff0000;stroke-width:0.2;stroke-linejoin:round"
       d="M -268.00018 361.00019 L -268.00018 363.50029 L -275.49998 363.50029 L -275.49998 368.35581 A 5 5 0 0 0 -279.93175 365.66812 A 5 5 0 0 0 -284.93196 370.66833 A 5 5 0 0 0 -279.93175 375.66803 A 5 5 0 0 0 -275.49998 372.95811 L -275.49998 380.00058 L -278.4998 380.00058 L -278.4998 410.0003 L -275.49998 410.0003 L -275.49998 416.50068 L -268.00018 416.50068 L -268.00018 419.00026 L -251.00018 419.00026 L -251.00018 416.50068 L -248.99979 416.50068 L -248.99979 363.50029 L -251.00018 363.50029 L -251.00018 361.00019 L -268.00018 361.00019 z " /><path
       id="rect38-1-3"
       style="fill-opacity:0;stroke:#ff00ff;stroke-width:0.2;stroke-linejoin:round"
       d="m -58.4595,403.62693 2.9484,0.55391 -3.1388,16.70772 -2.9484,-0.55392 z"
       sodipodi:nodetypes="ccccc" /><path
       id="rect39-5-0"
       style="fill-opacity:0;stroke:#ff00ff;stroke-width:0.2;stroke-linejoin:round"
       d="m -293.3503,359.49856 2.9484,0.55392 -3.1388,16.70771 -2.9484,-0.55391 z"
       sodipodi:nodetypes="ccccc" /><path
       style="fill:#000000;fill-opacity:0;stroke:#00a000;stroke-width:0.2;stroke-linejoin:round"
       d="m 193.33483,572.18599 2.94814,0.55396 -1.84634,9.82806 -2.94815,-0.55396 z"
       id="path12" /><path
       style="fill:#000000;fill-opacity:0;stroke:#00a000;stroke-width:0.2;stroke-linejoin:round"
       d="m 187.24181,604.61857 2.94811,0.55403 -1.84596,9.82798 -2.94862,-0.55348 z"
       id="path13" /><path
       style="fill:#000000;fill-opacity:0;stroke:#00a000;stroke-width:0.2;stroke-linejoin:round"
       d="m 54.594537,608.18838 -2.948138,-0.55396 1.846339,-9.82805 2.948151,0.55395 z"
       id="path14" /><path
       style="fill:#000000;fill-opacity:0;stroke:#00a000;stroke-width:0.2;stroke-linejoin:round"
       d="m 59.585407,565.37379 2.94862,0.55349 -1.846469,9.82853 -2.948112,-0.55404 z"
       id="path15" /><path
       id="rect1-8-4"
       style="fill:none;stroke:#000000;stroke-width:0.2;stroke-linejoin:round"
       d="m -260.00015,550 c -7.02535,0 -13.61908,1.82351 -19.35696,5.00435 l -15.64917,-2.93987 -5.72368,30.46739 1.41128,0.2651 c -0.42621,2.34001 -0.6811,4.74015 -0.6811,7.20318 0,22.09134 17.90825,40.00014 39.99963,40.00014 h 168.000081 c 6.812122,0 13.220813,-1.71323 18.835026,-4.71651 l 16.171106,3.03806 5.723681,-30.46688 -1.468644,-0.27595 c 0.471485,-2.4561 0.738973,-4.98524 0.738973,-7.57886 C -51.999927,567.9088 -69.908691,550 -92.000069,550 Z" /><path
       id="rect32-7-2-7-4"
       style="fill-opacity:0;stroke:#ff0000;stroke-width:0.2;stroke-linejoin:round"
       d="m -101.00004,560.99985 v 2.5001 h -1.99987 v 53.00039 h 1.99987 v 2.49959 h 16.999999 v -2.49959 h 7.499801 v -4.49172 a 5,5 0 0 0 4.431771,2.70991 5,5 0 0 0 5.000211,-4.99969 5,5 0 0 0 -5.000211,-5.00021 5,5 0 0 0 -4.431771,2.70991 v -7.42849 h 3.000334 v -9.9999 h -3.000334 v -9.99991 h 3.000334 v -9.99991 h -3.000334 v -6.50038 h -7.499801 v -2.5001 z" /><path
       id="rect32-7-2-7-7-5"
       style="fill-opacity:0;stroke:#ff0000;stroke-width:0.2;stroke-linejoin:round"
       d="m -268.00018,560.99985 v 2.5001 h -7.4998 v 4.85552 a 5,5 0 0 0 -4.43177,-2.68769 5,5 0 0 0 -5.00021,5.00021 5,5 0 0 0 5.00021,4.9997 5,5 0 0 0 4.43177,-2.70992 v 7.04247 h -2.99982 v 9.99991 h 2.99982 v 9.9999 h -2.99982 v 9.99991 h 2.99982 v 6.50038 h 7.4998 v 2.49959 h 17 v -2.49959 h 2.00039 v -53.00039 h -2.00039 v -2.5001 z" /><path
       id="rect30-1-4-6"
       style="fill-opacity:0;stroke:#ff0000;stroke-width:0.2;stroke-linejoin:round"
       d="m -59.1057,607.06638 2.9484,0.55392 -1.8464,9.82806 -2.9484,-0.55391 z" /><path
       id="rect31-8-6-3"
       style="fill-opacity:0;stroke:#ff0000;stroke-width:0.2;stroke-linejoin:round"
       d="m -293.9965,562.93802 2.9484,0.55391 -1.8464,9.82807 -2.9484,-0.55392 z" /><path
       style="fill:#000000;fill-opacity:0;stroke:#00a000;stroke-width:0.2;stroke-linejoin:round"
       d="m -106.66517,572.18599 2.94814,0.55396 -1.84634,9.82806 -2.94815,-0.55396 z"
       id="path12-3" /><path
       style="fill:#000000;fill-opacity:0;stroke:#00a000;stroke-width:0.2;stroke-linejoin:round"
       d="m -112.75819,604.61857 2.94811,0.55403 -1.84596,9.82798 -2.94862,-0.55348 z"
       id="path13-4" /><path
       style="fill:#000000;fill-opacity:0;stroke:#00a000;stroke-width:0.2;stroke-linejoin:round"
       d="m -245.40546,608.18838 -2.94814,-0.55396 1.84634,-9.82805 2.94815,0.55395 z"
       id="path14-4" /><path
       style="fill:#000000;fill-opacity:0;stroke:#00a000;stroke-width:0.2;stroke-linejoin:round"
       d="m -240.41459,565.37379 2.94862,0.55349 -1.84647,9.82853 -2.94811,-0.55404 z"
       id="path15-7" /><path
       style="fill:#000000;fill-opacity:0;stroke:#00a000;stroke-width:0.2;stroke-linejoin:round"
       d="m 188.81775,10.50001 2.99999,-2e-5 1e-5,10.00002 -3,10e-6 z"
       id="path16" /><path
       style="fill:#000000;fill-opacity:0;stroke:#00a000;stroke-width:0.2;stroke-linejoin:round"
       d="m 56.110671,10.49999 2.999996,-10e-6 9e-6,10.00001 -2.999998,10e-6 z"
       id="path17" /><path
       id="rect32-7-2-6"
       style="fill-opacity:0;stroke:#b45a00;stroke-width:0.2;stroke-linejoin:round"
       d="M 311.00011,361 H 294 v 2.5 h -2 v 6.5 h -2 v 40 h 2 v 6.5 h 2 v 2.5001 h 17.00011 V 416.5 H 318.5 v -12 h 3 V 400 h -3 v -15 h 3 v -10 h -3 v -11.5 h -7.49989 z"
       sodipodi:nodetypes="ccccccccccccccccccccccccc" /><path
       id="rect2"
       style="fill-opacity:0;stroke:#000000;stroke-width:0.2;stroke-linejoin:round"
       d="m 290,450 h 6 v 40 h -6 v -5 h 3 v -10 h -3 v -10 h 3 v -10 h -3 z"
       sodipodi:nodetypes="ccccccccccccc" /><path
       style="fill:#000000;fill-opacity:0;stroke:#000000;stroke-width:0.2;stroke-linejoin:round"
       d="m 24.5,580.00007 v 10"
       id="path2" /><path
       style="fill:#000000;fill-opacity:0;stroke:#000000;stroke-width:0.2;stroke-linejoin:round"
       d="m 24.5,600.00008 v 10.00001"
       id="path3" /><path
       style="fill:#000000;fill-opacity:0;stroke:#000000;stroke-width:0.2;stroke-linejoin:round"
       d="M 10.944687,595.10008 H 60.990905"
       id="path5"
       sodipodi:nodetypes="cc" /><path
       style="fill:#000000;fill-opacity:0;stroke:#000000;stroke-width:0.2;stroke-linejoin:round"
       d="M 10.944687,594.90008 H 60.990905"
       id="path5-2"
       sodipodi:nodetypes="cc" /><path
       style="fill:#000000;fill-opacity:0;stroke:#000000;stroke-width:0.2;stroke-linejoin:round"
       d="M 10.161007,577.10008 H 60.207225"
       id="path5-20"
       sodipodi:nodetypes="cc" /><path
       style="fill:#000000;fill-opacity:0;stroke:#000000;stroke-width:0.2;stroke-linejoin:round"
       d="M 10.161007,576.90008 H 60.207225"
       id="path5-2-2"
       sodipodi:nodetypes="cc" /><path
       id="rect1-8-49"
       style="fill:none;stroke:#000000;stroke-width:0.2;stroke-linejoin:round"
       d="M 40.000142 650.00012 C 32.974786 650.00012 26.380548 651.82362 20.642668 655.00446 L 4.9940104 652.06459 L -0.73018799 682.53147 L 0.68212891 682.79657 C 0.25586663 685.13673 2.7711294e-17 687.53707 0 690.00026 C 0 712.09161 17.908765 729.99989 40.000142 729.99989 L 208.00022 729.99989 C 214.81235 729.99989 221.22052 728.28718 226.83473 725.28389 L 243.00584 728.32195 L 248.73004 697.85456 L 247.26139 697.57861 C 247.73287 695.12253 247.99985 692.59386 247.99985 690.00026 C 247.99985 667.90891 230.0916 650.00012 208.00022 650.00012 L 40.000142 650.00012 z " /><path
       id="path9"
       style="fill:none;fill-opacity:0;stroke:#ff0000;stroke-width:0.2;stroke-linejoin:round"
       d="M 51,694.90031 V 677.10032" /><path
       id="path23"
       style="fill:none;fill-opacity:0;stroke:#ff0000;stroke-width:0.2;stroke-linejoin:round"
       d="m 24.500001,695.10008 -1e-6,4.9 h -3 v 10 h 3 v 6.5 h 7.49989 v 2.5 0 H 49 v -2.5 h 2 V 695.1003" /><path
       id="path10"
       style="fill:none;fill-opacity:0;stroke:#ff0000;stroke-width:0.2;stroke-linejoin:round"
       d="m 24.5,677.10004 v 2.90004 h -3 v 10 h 3 l 1e-6,4.90002" /><path
       id="path7"
       style="fill:none;fill-opacity:0;stroke:#ff0000;stroke-width:0.2;stroke-linejoin:round"
       d="m 51,676.90033 v -13.40025 h -2 v -2.5001 H 31.99989 v 2.5001 H 24.5 v 13.39998" /><path
       id="rect30-1-4-60"
       style="fill-opacity:0;stroke:#ff0000;stroke-width:0.2;stroke-linejoin:round"
       d="m 240.8943,707.06638 2.9484,0.55392 -1.8464,9.82806 -2.9484,-0.55391 z" /><path
       id="rect31-8-6-6"
       style="fill-opacity:0;stroke:#ff0000;stroke-width:0.2;stroke-linejoin:round"
       d="m 6.0034983,662.93802 2.9484,0.55391 -1.8464,9.82807 -2.9484,-0.55392 z" /><circle
       style="fill:#000000;fill-opacity:0;stroke:#d0d000;stroke-width:0.2;stroke-linejoin:round;stroke-dasharray:none"
       id="path32-90-4"
       cx="227.93176"
       cy="709.71863"
       r="5" /><circle
       style="fill:#000000;fill-opacity:0;stroke:#d0d000;stroke-width:0.2;stroke-linejoin:round;stroke-dasharray:none"
       id="path32-8-2-2"
       cx="20.068113"
       cy="670.66779"
       r="5" /><path
       style="fill:#000000;fill-opacity:0;stroke:#00a000;stroke-width:0.2;stroke-linejoin:round"
       d="m 193.33483,672.18599 2.94814,0.55396 -1.84634,9.82806 -2.94815,-0.55396 z"
       id="path12-1" /><path
       style="fill:#000000;fill-opacity:0;stroke:#00a000;stroke-width:0.2;stroke-linejoin:round"
       d="m 187.24181,704.61857 2.94811,0.55403 -1.84596,9.82798 -2.94862,-0.55348 z"
       id="path13-0" /><path
       style="fill:#000000;fill-opacity:0;stroke:#00a000;stroke-width:0.2;stroke-linejoin:round"
       d="m 54.594537,708.18838 -2.948138,-0.55396 1.846339,-9.82805 2.948151,0.55395 z"
       id="path14-40" /><path
       style="fill:#000000;fill-opacity:0;stroke:#00a000;stroke-width:0.2;stroke-linejoin:round"
       d="m 59.585407,665.37379 2.94862,0.55349 -1.846469,9.82853 -2.948112,-0.55404 z"
       id="path15-3" /><path
       style="fill:#000000;fill-opacity:0;stroke:#ff0000;stroke-width:0.2;stroke-linejoin:round"
       d="m 24.5,680.00007 v 10"
       id="path2-1" /><path
       style="fill:#000000;fill-opacity:0;stroke:#ff0000;stroke-width:0.2;stroke-linejoin:round"
       d="m 24.5,700.00008 v 10.00001"
       id="path3-3" /><path
       id="path9-5"
       style="fill:none;fill-opacity:0;stroke:#ff0000;stroke-width:0.2;stroke-linejoin:round"
       d="m 197,685.09985 v 17.79999" /><path
       id="path23-6"
       style="fill:none;fill-opacity:0;stroke:#ff0000;stroke-width:0.2;stroke-linejoin:round"
       d="m 223.5,684.90008 v -4.9 h 3 v -10 h -3 v -6.5 h -7.49989 v -2.5 0 H 199 v 2.5 h -2 v 21.39978" /><path
       id="path10-02"
       style="fill:none;fill-opacity:0;stroke:#ff0000;stroke-width:0.2;stroke-linejoin:round"
       d="m 223.5,702.90012 v -2.90004 h 3 v -10 h -3 v -4.90002" /><path
       id="path7-0"
       style="fill:none;fill-opacity:0;stroke:#ff0000;stroke-width:0.2;stroke-linejoin:round"
       d="m 197,703.09983 v 13.40025 h 2 v 2.5001 h 17.00011 v -2.5001 H 223.5 V 703.1001" /><path
       style="fill:#000000;fill-opacity:0;stroke:#ff0000;stroke-width:0.2;stroke-linejoin:round"
       d="m 223.5,700.00009 v -10"
       id="path2-1-9" /><path
       style="fill:#000000;fill-opacity:0;stroke:#ff0000;stroke-width:0.2;stroke-linejoin:round"
       d="M 223.5,680.00008 V 670.00007"
       id="path3-3-8" /><path
       style="fill:#000000;fill-opacity:0;stroke:#ff0000;stroke-width:0.2;stroke-linejoin:round"
       d="m 24.50021,480.00033 v 29.99973"
       id="path31" /><path
       id="path26-8"
       style="fill:none;fill-opacity:0;stroke:#ff0000;stroke-width:0.2;stroke-linejoin:round"
       d="m 197,466.10013 v 36.79983" /><path
       id="path30-9"
       style="fill:none;fill-opacity:0;stroke:#ff0000;stroke-width:0.2;stroke-linejoin:round"
       d="m 223.50019,465.90015 v -2.40037 h -7.4998 v -2.49959 H 199.0004 v 0 2.49959 H 197 v 2.40036" /><path
       id="path27-3"
       style="fill:none;fill-opacity:0;stroke:#ff0000;stroke-width:0.2;stroke-linejoin:round"
       d="m 223.50019,502.89996 v -2.90009 h 2.99982 v -29.99972 h -2.99982 v -3.90002" /><path
       id="path24-4"
       style="fill:none;fill-opacity:0;stroke:#ff0000;stroke-width:0.2;stroke-linejoin:round"
       d="m 197,503.09995 v 13.40021 h 2.0004 v 2.5001 h 16.99999 v -2.5001 h 7.4998 v -13.40022" /><path
       style="fill:#000000;fill-opacity:0;stroke:#ff0000;stroke-width:0.2;stroke-linejoin:round"
       d="M 223.50019,499.99988 V 470.00015"
       id="path31-4" /></g></svg>
