<?xml version="1.0" encoding="UTF-8" standalone="no"?>
<!-- Created with Inkscape (http://www.inkscape.org/) -->

<svg
   width="305mm"
   height="1100mm"
   viewBox="0 0 305 1100"
   version="1.1"
   id="svg1"
   xml:space="preserve"
   inkscape:version="1.3.2 (091e20e, 2023-11-25, custom)"
   sodipodi:docname="Module Pont 248 v2 Conception.svg"
   xmlns:inkscape="http://www.inkscape.org/namespaces/inkscape"
   xmlns:sodipodi="http://sodipodi.sourceforge.net/DTD/sodipodi-0.dtd"
   xmlns="http://www.w3.org/2000/svg"
   xmlns:svg="http://www.w3.org/2000/svg"><sodipodi:namedview
     id="namedview1"
     pagecolor="#ffffff"
     bordercolor="#000000"
     borderopacity="0.25"
     inkscape:showpageshadow="2"
     inkscape:pageopacity="0.0"
     inkscape:pagecheckerboard="0"
     inkscape:deskcolor="#d1d1d1"
     inkscape:document-units="mm"
     inkscape:zoom="0.70710678"
     inkscape:cx="1907.067"
     inkscape:cy="422.84986"
     inkscape:window-width="3807"
     inkscape:window-height="1328"
     inkscape:window-x="1288"
     inkscape:window-y="572"
     inkscape:window-maximized="0"
     inkscape:current-layer="layer1" /><defs
     id="defs1"><pattern
       id="EMFhbasepattern"
       patternUnits="userSpaceOnUse"
       width="6"
       height="6"
       x="0"
       y="0" /></defs><g
     inkscape:label="Calque 1"
     inkscape:groupmode="layer"
     id="layer1"><path
       id="rect1"
       style="fill:none;stroke:#000000;stroke-width:0.2;stroke-linejoin:round"
       d="M 0,2 H 248 V 29 H 0 Z"
       sodipodi:nodetypes="ccccc" /><circle
       style="fill:none;stroke:#ff0000;stroke-width:0.2;stroke-linejoin:round"
       id="path11"
       cx="18.25"
       cy="15.5"
       r="1" /><circle
       style="fill:none;stroke:#ff0000;stroke-width:0.2;stroke-linejoin:round"
       id="path11-8"
       cx="229.75"
       cy="15.5"
       r="1" /><path
       id="path23-6-7-0-7-0-1-7-9"
       style="fill:none;stroke:#ff8000;stroke-width:0.2;stroke-linejoin:round"
       d="m 192.99976,281.5 -3e-5,3.50006 -2.99973,-1.1e-4 2e-5,10 2.99974,10e-5 -4e-5,23.00003 -2.99971,-1.6e-4 -1e-5,10.00045 3.00012,-4.5e-4 -1.8e-4,7.00018 8.00008,-2e-4 1.1e-4,-10.99988 7.99958,-1.1e-4 2.7e-4,-3.49996 2.99974,1.1e-4 -3e-5,-10.00027 -2.99964,4.2e-4 -3.1e-4,-3.50019 -7.99957,1.1e-4 -3e-4,-25.50013 z"
       sodipodi:nodetypes="ccccccccccccccccccccc" /><path
       id="path23-6-7-0-7-0-1-7-9-7"
       style="fill:none;stroke:#ff8000;stroke-width:0.2;stroke-linejoin:round"
       d="m 52.99976,281.5 -3e-5,3.50006 -2.99973,-1.1e-4 2e-5,10 2.99974,10e-5 -2.6e-5,15.49995 H 50 v 3 h 3 l -2.8e-4,4.50008 -2.99971,-1.6e-4 -1e-5,10.00045 3.00012,-4.5e-4 -1.8e-4,7.00018 8.00008,-2e-4 1.1e-4,-10.99988 7.99958,-1.1e-4 2.7e-4,-3.49996 2.99974,1.1e-4 -3e-5,-10.00027 -2.99964,4.2e-4 -3.1e-4,-3.50019 -7.99957,1.1e-4 -3e-4,-25.50013 z"
       sodipodi:nodetypes="ccccccccccccccccccccccccc" /><path
       id="path23-6-7-0-7-0-1-7-9-3"
       style="fill:none;stroke:#ff8000;stroke-width:0.2;stroke-linejoin:round"
       d="m 92.99976,281.5 -3e-5,3.50006 -2.99973,-1.1e-4 2e-5,10 2.99974,10e-5 -4e-5,23.00003 -2.99971,-1.6e-4 -1e-5,10.00045 3.00012,-4.5e-4 -1.8e-4,7.00018 8.00008,-2e-4 1.1e-4,-10.99988 7.99958,-1.1e-4 2.7e-4,-3.49996 2.99974,1.1e-4 -3e-5,-10.00027 -2.99964,4.2e-4 -3.1e-4,-3.50019 -7.99957,1.1e-4 L 101.00004,295 H 104 v -10 h -3.00009 l -4e-5,-3.5 z"
       sodipodi:nodetypes="ccccccccccccccccccccccccc" /><path
       id="path23-6-7-0-7-0-1-7-9-5"
       style="fill:none;stroke:#ff8000;stroke-width:0.2;stroke-linejoin:round"
       d="m 152.99976,281.5 -3e-5,3.50006 -2.99973,-1.1e-4 2e-5,10 2.99974,10e-5 -4e-5,29.00003 -2.99971,-1.6e-4 -1e-5,4.00045 3.00012,-4.5e-4 -1.8e-4,7.00018 8.00008,-2e-4 1.1e-4,-10.99988 7.99958,-1.1e-4 2.7e-4,-3.49996 2.99974,1.1e-4 -3e-5,-10.00027 -2.99964,4.2e-4 -3.1e-4,-3.50019 -7.99957,1.1e-4 -3e-4,-25.50013 z"
       sodipodi:nodetypes="ccccccccccccccccccccc" /><path
       style="fill:none;stroke:#ff8000;stroke-width:0.2;stroke-linejoin:round"
       d="m 323,520 v -8.5 h -3 v -10 h 3 V 493 h 8 v 5 h 8 v 3.5 h 3 v 10 h -3 v 3.5 h -8 v 5 z"
       id="path23-6-7-0-0"
       sodipodi:nodetypes="ccccccccccccccccc" /><path
       style="fill:none;stroke:#ff8000;stroke-width:0.2;stroke-linejoin:round"
       d="m 232.42868,329.84192 v -8.5 h -3 v -10 h 3 v -8.5 h 8 v 5 h 8 v 3.5 h 3 v 10 h -3 v 3.5 h -8 v 5 z"
       id="path23-6-7-0-0-1"
       sodipodi:nodetypes="ccccccccccccccccc" /><path
       style="fill:none;stroke:#ff8000;stroke-width:0.2;stroke-linejoin:round"
       d="M 263,489.5 V 485 h -5 v -10 h 5 v -10 h -5 v -10 h 5 v -5 h 8 v 5 h 6 v 5 h -3 v 10 h 3 v 15 h -6 v 4.5 z"
       id="path23-6-7-0-0-1-6"
       sodipodi:nodetypes="ccccccccccccccccccccc" /><path
       id="rect30"
       style="fill-opacity:0;stroke:#ff0000;stroke-width:0.2;stroke-linejoin:round"
       d="m 242,10.5 h 3 v 10 h -3 z" /><path
       id="rect31"
       style="fill-opacity:0;stroke:#ff0000;stroke-width:0.2;stroke-linejoin:round"
       d="m 3,10.5 h 3.0000007 v 10 H 3 Z" /><path
       style="fill:#000000;fill-opacity:0;stroke:#00a000;stroke-width:0.2;stroke-linejoin:round"
       d="m 188.81775,10.50001 2.99999,-2e-5 1e-5,10.00002 -3,10e-6 z"
       id="path16" /><path
       style="fill:#000000;fill-opacity:0;stroke:#00a000;stroke-width:0.2;stroke-linejoin:round"
       d="m 56.110671,10.49999 2.999996,-10e-6 9e-6,10.00001 -2.999998,10e-6 z"
       id="path17" /><path
       id="rect32-7-2-6"
       style="fill-opacity:0;stroke:#b45a00;stroke-width:0.2;stroke-linejoin:round"
       d="M 311.00011,361 H 294 v 2.5 h -2 v 6.5 h -2 v 40 h 2 v 6.5 h 2 v 2.5001 h 17.00011 V 416.5 H 318.5 v -12 h 3 V 400 h -3 v -15 h 3 v -10 h -3 v -11.5 h -7.49989 z"
       sodipodi:nodetypes="ccccccccccccccccccccccccc" /><path
       id="rect2"
       style="fill-opacity:0;stroke:#000000;stroke-width:0.2;stroke-linejoin:round"
       d="m 290,450 h 6 v 40 h -6 v -5 h 3 v -10 h -3 v -10 h 3 v -10 h -3 z"
       sodipodi:nodetypes="ccccccccccccc" /><path
       id="path9-9"
       style="fill:none;fill-opacity:0;stroke:#ff0000;stroke-width:0.2;stroke-linejoin:round"
       d="M 49.9999,794.90019 V 777.1002" /><path
       id="path23-2"
       style="fill:none;fill-opacity:0;stroke:#ff0000;stroke-width:0.2;stroke-linejoin:round"
       d="m 23.499901,795.09996 -1e-6,4.9 h -3 v 10 h 3 v 6.5 h 7.49989 v 2.5 0 H 47.9999 v -2.5 h 2 v -21.39978" /><path
       id="path10-5"
       style="fill:none;fill-opacity:0;stroke:#ff0000;stroke-width:0.2;stroke-linejoin:round"
       d="m 23.4999,777.09992 v 2.90004 h -3 v 10 h 3 l 1e-6,4.90002" /><path
       id="path7-2"
       style="fill:none;fill-opacity:0;stroke:#ff0000;stroke-width:0.2;stroke-linejoin:round"
       d="m 49.9999,776.90021 v -13.40025 h -2 v -2.5001 H 30.99979 v 2.5001 H 23.4999 v 13.39998" /><path
       style="fill:#000000;fill-opacity:0;stroke:#ff0000;stroke-width:0.2;stroke-linejoin:round"
       d="m 23.4999,779.99995 v 10"
       id="path2-1-92" /><path
       style="fill:#000000;fill-opacity:0;stroke:#ff0000;stroke-width:0.2;stroke-linejoin:round"
       d="m 23.4999,799.99996 v 10.00001"
       id="path3-3-0" /><path
       id="path9-5-0"
       style="fill:none;fill-opacity:0;stroke:#ff0000;stroke-width:0.2;stroke-linejoin:round"
       d="m 195.99989,785.09973 v 17.79999" /><path
       id="path23-6-1"
       style="fill:none;fill-opacity:0;stroke:#ff0000;stroke-width:0.2;stroke-linejoin:round"
       d="m 222.49989,784.89996 v -4.9 h 3 v -10 h -3 v -6.5 H 215 v -2.5 0 h -17.00011 v 2.5 h -2 v 21.39978" /><path
       id="path10-02-1"
       style="fill:none;fill-opacity:0;stroke:#ff0000;stroke-width:0.2;stroke-linejoin:round"
       d="m 222.49989,802.9 v -2.90004 h 3 v -10 h -3 v -4.90002" /><path
       id="path7-0-6"
       style="fill:none;fill-opacity:0;stroke:#ff0000;stroke-width:0.2;stroke-linejoin:round"
       d="m 195.99989,803.09971 v 13.40025 h 2 v 2.5001 H 215 v -2.5001 h 7.49989 v -13.39998" /><path
       style="fill:#000000;fill-opacity:0;stroke:#ff0000;stroke-width:0.2;stroke-linejoin:round"
       d="m 222.49989,799.99997 v -10"
       id="path2-1-9-1" /><path
       style="fill:#000000;fill-opacity:0;stroke:#ff0000;stroke-width:0.2;stroke-linejoin:round"
       d="M 222.49989,779.99996 V 769.99995"
       id="path3-3-8-2" /><path
       id="rect32-7-2-2"
       style="fill-opacity:0;stroke:#ff0000;stroke-width:0.2;stroke-linejoin:round"
       d="m 198.00036,861.00019 v 2.49959 h -2.0004 v 53.00038 h 2.0004 v 2.5001 h 16.99999 v -2.5001 h 7.4998 v -16.50029 h 2.99982 v -29.99972 h -2.99982 v -6.50037 h -7.4998 v -2.49959 z" /><path
       id="rect32-7-2-0-8"
       style="fill-opacity:0;stroke:#ff0000;stroke-width:0.2;stroke-linejoin:round"
       d="m 48.000101,919.00002 v -2.49959 h 2.0004 v -53.00038 h -2.0004 v -2.5001 h -16.99999 v 2.5001 h -7.4998 v 16.50029 h -2.99982 v 29.99972 h 2.99982 v 6.50037 h 7.4998 v 2.49959 z" /><path
       id="path26-9"
       style="fill:none;fill-opacity:0;stroke:#ff0000;stroke-width:0.2;stroke-linejoin:round"
       d="m 50.000011,1013.9 -10e-7,-36.79975" /><path
       id="path30-1"
       style="fill:none;fill-opacity:0;stroke:#ff0000;stroke-width:0.2;stroke-linejoin:round"
       d="m 23.499819,1014.1 1e-6,2.4004 h 7.4998 V 1019 h 16.99999 v 0 -2.4996 h 2.0004 l 10e-7,-2.4004" /><path
       id="path27-6"
       style="fill:none;fill-opacity:0;stroke:#ff0000;stroke-width:0.2;stroke-linejoin:round"
       d="m 23.49982,977.10025 v 2.90009 H 20.5 V 1010 h 2.99982 v 3.9" /><path
       id="path24-3"
       style="fill:none;fill-opacity:0;stroke:#ff0000;stroke-width:0.2;stroke-linejoin:round"
       d="m 50.00001,976.90026 v -13.40021 h -2.0004 v -2.5001 H 30.99962 v 2.5001 h -7.4998 v 13.40022" /><path
       style="fill:#000000;fill-opacity:0;stroke:#ff0000;stroke-width:0.2;stroke-linejoin:round"
       d="M 23.49982,980.00033 V 1010"
       id="path31-2" /><path
       id="path26-8-2"
       style="fill:none;fill-opacity:0;stroke:#ff0000;stroke-width:0.2;stroke-linejoin:round"
       d="M 196,966.10013 V 1002.9" /><path
       id="path30-9-6"
       style="fill:none;fill-opacity:0;stroke:#ff0000;stroke-width:0.2;stroke-linejoin:round"
       d="m 222.50019,965.90015 v -2.40037 h -7.4998 v -2.49959 H 198.0004 v 0 2.49959 H 196 v 2.40036" /><path
       id="path27-3-4"
       style="fill:none;fill-opacity:0;stroke:#ff0000;stroke-width:0.2;stroke-linejoin:round"
       d="m 222.50019,1002.9 v -2.90013 h 2.99982 v -29.99972 h -2.99982 v -3.90002" /><path
       id="path24-4-8"
       style="fill:none;fill-opacity:0;stroke:#ff0000;stroke-width:0.2;stroke-linejoin:round"
       d="m 196,1003.0999 v 13.4002 h 2.0004 v 2.5001 h 16.99999 v -2.5001 h 7.4998 v -13.4002" /><path
       style="fill:#000000;fill-opacity:0;stroke:#ff0000;stroke-width:0.2;stroke-linejoin:round"
       d="M 222.50019,999.99988 V 970.00015"
       id="path31-4-4" /><path
       id="rect30-4-2"
       style="fill-opacity:0;stroke:#ff00ff;stroke-width:0.2;stroke-linejoin:round"
       d="m 240.07583,805.56666 2.95442,0.52094 -1.73648,9.84808 -2.95443,-0.52094 z" /><path
       id="rect31-2-3"
       style="fill-opacity:0;stroke:#ff00ff;stroke-width:0.2;stroke-linejoin:round"
       d="m 4.706773,764.06474 2.954424,0.52095 -1.736482,9.84808 -2.954424,-0.52095 z" /><circle
       style="fill:#000000;fill-opacity:0;stroke:#d0d000;stroke-width:0.2;stroke-linejoin:round;stroke-dasharray:none"
       id="path32-8-2-4-5-1-7"
       cx="18.856842"
       cy="771.6369"
       r="5" /><circle
       style="fill:#000000;fill-opacity:0;stroke:#d0d000;stroke-width:0.2;stroke-linejoin:round;stroke-dasharray:none"
       id="path32-8-2-4-5-4-1"
       cx="227.14371"
       cy="808.36353"
       r="5" /><circle
       style="fill:#000000;fill-opacity:0;stroke:#d0d000;stroke-width:0.2;stroke-linejoin:round;stroke-dasharray:none"
       id="path32-8-2-4-5-1-5-4"
       cx="18.856195"
       cy="871.63678"
       r="5" /><circle
       style="fill:#000000;fill-opacity:0;stroke:#d0d000;stroke-width:0.2;stroke-linejoin:round;stroke-dasharray:none"
       id="path32-8-2-4-5-4-3-1"
       cx="227.1431"
       cy="908.3634"
       r="5" /><path
       id="rect3-9"
       style="fill-opacity:0;stroke:#ff00ff;stroke-width:0.2;stroke-linejoin:round"
       d="m 240.68297,902.11971 2.95442,0.52095 -2.95202,16.74173 -2.95442,-0.52095 z" /><path
       id="rect3-6-1"
       style="fill-opacity:0;stroke:#ff00ff;stroke-width:0.2;stroke-linejoin:round"
       d="m 5.3139184,860.6178 2.95442,0.52096 -2.95202,16.74173 -2.95442,-0.52096 z" /><circle
       style="fill:#000000;fill-opacity:0;stroke:#d0d000;stroke-width:0.2;stroke-linejoin:round;stroke-dasharray:none"
       id="path32-8-2-4-5-1-5-4-2"
       cx="18.856195"
       cy="971.63678"
       r="5" /><circle
       style="fill:#000000;fill-opacity:0;stroke:#d0d000;stroke-width:0.2;stroke-linejoin:round;stroke-dasharray:none"
       id="path32-8-2-4-5-4-3-1-9"
       cx="227.1431"
       cy="1008.3634"
       r="5" /><path
       id="rect3-9-5"
       style="fill-opacity:0;stroke:#ff00ff;stroke-width:0.2;stroke-linejoin:round"
       d="m 240.68297,1002.1197 2.95442,0.5209 -2.95202,16.7418 -2.95442,-0.521 z" /><path
       id="rect3-6-1-8"
       style="fill-opacity:0;stroke:#ff00ff;stroke-width:0.2;stroke-linejoin:round"
       d="m 5.3139184,960.61781 2.9544196,0.52096 -2.9520196,16.74173 -2.95442,-0.52096 z" /><path
       style="fill:#00e000;fill-opacity:0;stroke:#00a0ff;stroke-width:0.2;stroke-linejoin:round"
       d="M 350,920 V 800"
       id="path1"
       sodipodi:nodetypes="cc" /><path
       id="rect3"
       style="fill:#00e000;fill-opacity:0;stroke:#ff00ff;stroke-width:0.2;stroke-linejoin:round"
       d="m 57.618578,869.84018 2.954423,0.52095 -2.951991,16.74157 -2.954423,-0.52095 z" /><path
       id="rect3-5"
       style="fill:#00e000;fill-opacity:0;stroke:#ff00ff;stroke-width:0.2;stroke-linejoin:round"
       d="m 188.28872,892.89007 2.95443,0.52095 -2.952,16.74157 -2.95442,-0.52095 z" /><path
       style="fill:#00e000;fill-opacity:0;stroke:#00a000;stroke-width:0.2;stroke-linejoin:round"
       d="m 192.12972,771.21889 2.95414,0.52099 -1.73646,9.84809 -2.95414,-0.52099 z"
       id="path25" /><path
       style="fill:#00e000;fill-opacity:0;stroke:#00a000;stroke-width:0.2;stroke-linejoin:round"
       d="m 186.39934,803.71753 2.95411,0.52105 -1.73606,9.84797 -2.95462,-0.52051 z"
       id="path28" /><path
       style="fill:#00e000;fill-opacity:0;stroke:#00a000;stroke-width:0.2;stroke-linejoin:round"
       d="m 52.582582,798.39983 2.954184,0.52081 -1.736511,9.84805 -2.954176,-0.52078 z"
       id="path29" /><path
       style="fill:#00e000;fill-opacity:0;stroke:#00a000;stroke-width:0.2;stroke-linejoin:round"
       d="m 56.576475,775.74927 1.736551,-9.84853 2.954461,0.52142 -1.736849,9.84784 z"
       id="path33" /><path
       id="path9-9-5"
       style="fill:none;fill-opacity:0;stroke:#ff0000;stroke-width:0.2;stroke-linejoin:round"
       d="M 196.00095,694.90019 V 677.1002" /><path
       id="path23-2-1"
       style="fill:none;fill-opacity:0;stroke:#ff0000;stroke-width:0.2;stroke-linejoin:round"
       d="m 222.50095,695.09996 0,4.9 h 3 v 10 h -3 v 6.5 h -7.49989 v 2.5 0 h -17.00011 v -2.5 h -2 v -21.39978" /><path
       id="path10-5-4"
       style="fill:none;fill-opacity:0;stroke:#ff0000;stroke-width:0.2;stroke-linejoin:round"
       d="m 222.50095,677.09992 v 2.90004 h 3 v 10 h -3 l 0,4.90002" /><path
       id="path7-2-6"
       style="fill:none;fill-opacity:0;stroke:#ff0000;stroke-width:0.2;stroke-linejoin:round"
       d="m 196.00095,676.90021 v -13.40025 h 2 v -2.5001 h 17.00011 v 2.5001 h 7.49989 v 13.39998" /><path
       style="fill:#000000;fill-opacity:0;stroke:#ff0000;stroke-width:0.2;stroke-linejoin:round"
       d="m 222.50095,679.99995 v 10"
       id="path2-1-92-2" /><path
       style="fill:#000000;fill-opacity:0;stroke:#ff0000;stroke-width:0.2;stroke-linejoin:round"
       d="m 222.50095,699.99996 v 10.00001"
       id="path3-3-0-0" /><path
       id="path9-5-0-1"
       style="fill:none;fill-opacity:0;stroke:#ff0000;stroke-width:0.2;stroke-linejoin:round"
       d="m 50.00096,685.09973 v 17.79999" /><path
       id="path23-6-1-1"
       style="fill:none;fill-opacity:0;stroke:#ff0000;stroke-width:0.2;stroke-linejoin:round"
       d="m 23.50096,684.89996 v -4.9 h -3 v -10 h 3 v -6.5 h 7.49989 v -2.5 0 h 17.00011 v 2.5 h 2 v 21.39978" /><path
       id="path10-02-1-3"
       style="fill:none;fill-opacity:0;stroke:#ff0000;stroke-width:0.2;stroke-linejoin:round"
       d="m 23.50096,702.9 v -2.90004 h -3 v -10 h 3 v -4.90002" /><path
       id="path7-0-6-4"
       style="fill:none;fill-opacity:0;stroke:#ff0000;stroke-width:0.2;stroke-linejoin:round"
       d="m 50.00096,703.09971 v 13.40025 h -2 v 2.5001 H 31.00085 v -2.5001 h -7.49989 v -13.39998" /><path
       style="fill:#000000;fill-opacity:0;stroke:#ff0000;stroke-width:0.2;stroke-linejoin:round"
       d="m 23.50096,699.99997 v -10"
       id="path2-1-9-1-1" /><path
       style="fill:#000000;fill-opacity:0;stroke:#ff0000;stroke-width:0.2;stroke-linejoin:round"
       d="M 23.50096,679.99996 V 669.99995"
       id="path3-3-8-2-6" /><path
       id="rect30-4-2-2"
       style="fill-opacity:0;stroke:#ff00ff;stroke-width:0.2;stroke-linejoin:round"
       d="m 5.92502,705.56666 -2.95442,0.52094 1.73648,9.84808 2.95443,-0.52094 z" /><path
       id="rect31-2-3-7"
       style="fill-opacity:0;stroke:#ff00ff;stroke-width:0.2;stroke-linejoin:round"
       d="m 241.29408,664.06474 -2.95443,0.52095 1.73648,9.84808 2.95443,-0.52095 z" /><circle
       style="fill:#000000;fill-opacity:0;stroke:#d0d000;stroke-width:0.2;stroke-linejoin:round;stroke-dasharray:none"
       id="path32-8-2-4-5-1-7-3"
       cx="-227.14401"
       cy="671.6369"
       r="5"
       transform="scale(-1,1)" /><circle
       style="fill:#000000;fill-opacity:0;stroke:#d0d000;stroke-width:0.2;stroke-linejoin:round;stroke-dasharray:none"
       id="path32-8-2-4-5-4-1-4"
       cx="-18.857143"
       cy="708.36353"
       r="5"
       transform="scale(-1,1)" /><path
       style="fill:#00e000;fill-opacity:0;stroke:#00a000;stroke-width:0.2;stroke-linejoin:round"
       d="m 53.87113,671.21889 -2.95414,0.52099 1.73646,9.84809 2.95414,-0.52099 z"
       id="path25-6" /><path
       style="fill:#00e000;fill-opacity:0;stroke:#00a000;stroke-width:0.2;stroke-linejoin:round"
       d="m 59.60151,703.71753 -2.95411,0.52105 1.73606,9.84797 2.95462,-0.52051 z"
       id="path28-9" /><path
       style="fill:#00e000;fill-opacity:0;stroke:#00a000;stroke-width:0.2;stroke-linejoin:round"
       d="m 193.41827,698.39983 -2.95419,0.52081 1.73651,9.84805 2.95418,-0.52078 z"
       id="path29-2" /><path
       style="fill:#00e000;fill-opacity:0;stroke:#00a000;stroke-width:0.2;stroke-linejoin:round"
       d="m 189.42437,675.74927 -1.73655,-9.84853 -2.95446,0.52142 1.73685,9.84784 z"
       id="path33-7" /><path
       id="rect30-4-2-1"
       style="fill-opacity:0;stroke:#ff00ff;stroke-width:0.2;stroke-linejoin:round"
       d="m 240.07583,405.56666 2.95442,0.52094 -1.73648,9.84808 -2.95443,-0.52094 z" /><path
       id="rect31-2-3-4"
       style="fill-opacity:0;stroke:#ff00ff;stroke-width:0.2;stroke-linejoin:round"
       d="m 4.706773,364.06474 2.954424,0.52095 -1.736482,9.84808 -2.954424,-0.52095 z" /><path
       id="path32-8-2-4-5-1-7-1"
       style="fill:#000000;fill-opacity:0;stroke:#ff0000;stroke-width:0.2;stroke-linejoin:round;stroke-dasharray:none"
       d="M 30.999658 360.99967 L 30.999658 363.49978 L 23.499858 363.49978 L 23.499858 369.78518 A 5 5 0 0 0 18.85673 366.63705 A 5 5 0 0 0 13.857035 371.63675 A 5 5 0 0 0 18.85673 376.63696 A 5 5 0 0 0 23.499858 373.45937 L 23.499858 380.00006 L 20.500041 380.00006 L 20.500041 389.99997 L 23.499858 389.99997 L 23.499858 399.99987 L 20.500041 399.99987 L 20.500041 409.99978 L 23.499858 409.99978 L 23.499858 416.50016 L 30.999658 416.50016 L 30.999658 418.99975 L 47.999654 418.99975 L 47.999654 416.50016 L 50.000049 416.50016 L 50.000049 363.49978 L 47.999654 363.49978 L 47.999654 360.99967 L 30.999658 360.99967 z " /><path
       id="path32-8-2-4-5-4-1-3"
       style="fill:#000000;fill-opacity:0;stroke:#ff0000;stroke-width:0.2;stroke-linejoin:round;stroke-dasharray:none"
       d="M 197.9998 361.00019 L 197.9998 363.49978 L 195.99992 363.49978 L 195.99992 416.50016 L 197.9998 416.50016 L 197.9998 419.00026 L 214.9998 419.00026 L 214.9998 416.50016 L 222.50011 416.50016 L 222.50011 410.18478 A 5 5 0 0 0 227.14376 413.3634 A 5 5 0 0 0 232.14345 408.3637 A 5 5 0 0 0 227.14376 403.36349 A 5 5 0 0 0 222.50011 406.54263 L 222.50011 399.99987 L 225.49993 399.99987 L 225.49993 389.99997 L 222.50011 389.99997 L 222.50011 380.00006 L 225.49993 380.00006 L 225.49993 370.00015 L 222.50011 370.00015 L 222.50011 363.49978 L 214.9998 363.49978 L 214.9998 361.00019 L 197.9998 361.00019 z " /><path
       id="path32-8-2-4-5-1-5-4-2-9"
       style="fill:#000000;fill-opacity:0;stroke:#ff0000;stroke-width:0.2;stroke-linejoin:round;stroke-dasharray:none"
       d="M 30.999658 460.99977 L 30.999658 463.49987 L 23.499858 463.49987 L 23.499858 469.78631 A 5 5 0 0 0 18.856213 466.63663 A 5 5 0 0 0 13.856002 471.63684 A 5 5 0 0 0 18.856213 476.63654 A 5 5 0 0 0 23.499858 473.45792 L 23.499858 480.00016 L 20.500041 480.00016 L 20.500041 509.99988 L 23.499858 509.99988 L 23.499858 516.50026 L 30.999658 516.50026 L 30.999658 518.99985 L 47.999654 518.99985 L 47.999654 516.50026 L 50.000049 516.50026 L 50.000049 463.49987 L 47.999654 463.49987 L 47.999654 460.99977 L 30.999658 460.99977 z " /><path
       id="path32-8-2-4-5-4-3-1-9-8"
       style="fill:#000000;fill-opacity:0;stroke:#ff0000;stroke-width:0.2;stroke-linejoin:round;stroke-dasharray:none"
       d="M 198.00032 460.99977 L 198.00032 463.49936 L 195.99992 463.49936 L 195.99992 516.49974 L 198.00032 516.49974 L 198.00032 518.99985 L 215.00031 518.99985 L 215.00031 516.49974 L 222.50011 516.49974 L 222.50011 510.18695 A 5 5 0 0 0 227.14324 513.3635 A 5 5 0 0 0 232.14294 508.36329 A 5 5 0 0 0 227.14324 503.36359 A 5 5 0 0 0 222.50011 506.54014 L 222.50011 499.99945 L 225.49993 499.99945 L 225.49993 469.99974 L 222.50011 469.99974 L 222.50011 463.49936 L 215.00031 463.49936 L 215.00031 460.99977 L 198.00032 460.99977 z " /><path
       id="rect3-9-5-2"
       style="fill-opacity:0;stroke:#ff00ff;stroke-width:0.2;stroke-linejoin:round"
       d="m 240.68297,502.1197 2.95442,0.5209 -2.95202,16.7418 -2.95442,-0.521 z" /><path
       id="rect3-6-1-8-4"
       style="fill-opacity:0;stroke:#ff00ff;stroke-width:0.2;stroke-linejoin:round"
       d="m 5.313918,460.61781 2.95442,0.52096 -2.95202,16.74173 -2.95442,-0.52096 z" /><path
       style="fill:#00e000;fill-opacity:0;stroke:#00a000;stroke-width:0.2;stroke-linejoin:round"
       d="m 192.12972,371.21889 2.95414,0.52099 -1.73646,9.84809 -2.95414,-0.52099 z"
       id="path25-1" /><path
       style="fill:#00e000;fill-opacity:0;stroke:#00a000;stroke-width:0.2;stroke-linejoin:round"
       d="m 186.39934,403.71753 2.95411,0.52105 -1.73606,9.84797 -2.95462,-0.52051 z"
       id="path28-4" /><path
       style="fill:#00e000;fill-opacity:0;stroke:#00a000;stroke-width:0.2;stroke-linejoin:round"
       d="m 52.582582,398.39983 2.954184,0.52081 -1.736511,9.84805 -2.954176,-0.52078 z"
       id="path29-1" /><path
       style="fill:#00e000;fill-opacity:0;stroke:#00a000;stroke-width:0.2;stroke-linejoin:round"
       d="m 56.576475,375.74927 1.736551,-9.84853 2.954461,0.52142 -1.736849,9.84784 z"
       id="path33-8" /><g
       inkscape:label="Hershey Text"
       style="fill:none;stroke:#0000ff;stroke-width:0.2;stroke-linecap:round;stroke-linejoin:round;stroke-dasharray:none"
       id="g54"
       transform="translate(-288.45522,-3.9952194)"><g
         transform="translate(376.238,657.225)"
         id="g53"
         style="stroke:#0000ff;stroke-width:0.2;stroke-dasharray:none"><path
           d="M 220,662 V 0 M 220,662 472,0 M 724,662 472,0 M 724,662 V 0"
           style="stroke:#0000ff;stroke-width:28.3464;stroke-dasharray:none"
           transform="scale(0.00705556,-0.00705556)"
           id="path39" /><path
           d="M 346,441 284,410 220,346 189,252 V 189 L 220,94.5 284,31.5 346,0 h 95 l 63,31.5 63,63 31,94.5 v 63 l -31,94 -63,64 -63,31 h -95"
           style="stroke:#0000ff;stroke-width:28.3464;stroke-dasharray:none"
           transform="matrix(0.00705556,0,0,-0.00705556,5.334,0)"
           id="path40" /><path
           d="M 567,662 V 0 m 0,346 -63,64 -63,31 H 346 L 284,410 220,346 189,252 V 189 L 220,94.5 284,31.5 346,0 h 95 l 63,31.5 63,63"
           style="stroke:#0000ff;stroke-width:28.3464;stroke-dasharray:none"
           transform="matrix(0.00705556,0,0,-0.00705556,9.55323,0)"
           id="path41" /><path
           d="M 220,441 V 126 L 252,31.5 315,0 h 95 l 62,31.5 95,94.5 m 0,315 V 0"
           style="stroke:#0000ff;stroke-width:28.3464;stroke-dasharray:none"
           transform="matrix(0.00705556,0,0,-0.00705556,13.7725,0)"
           id="path42" /><path
           d="M 220,662 V 0"
           style="stroke:#0000ff;stroke-width:28.3464;stroke-dasharray:none"
           transform="matrix(0.00705556,0,0,-0.00705556,17.9917,0)"
           id="path43" /><path
           d="m 189,252 h 378 v 63 l -31,63 -32,32 -63,31 H 346 L 284,410 220,346 189,252 V 189 L 220,94.5 284,31.5 346,0 h 95 l 63,31.5 63,63"
           style="stroke:#0000ff;stroke-width:28.3464;stroke-dasharray:none"
           transform="matrix(0.00705556,0,0,-0.00705556,19.7697,0)"
           id="path44" /><path
           d="M 220,662 V 0 m 0,662 h 284 l 94,-32 32,-32 32,-62 V 441 L 630,378 598,346 504,315 H 220"
           style="stroke:#0000ff;stroke-width:28.3464;stroke-dasharray:none"
           transform="matrix(0.00705556,0,0,-0.00705556,26.4372,0)"
           id="path45" /><path
           d="M 346,441 284,410 220,346 189,252 V 189 L 220,94.5 284,31.5 346,0 h 95 l 63,31.5 63,63 31,94.5 v 63 l -31,94 -63,64 -63,31 h -95"
           style="stroke:#0000ff;stroke-width:28.3464;stroke-dasharray:none"
           transform="matrix(0.00705556,0,0,-0.00705556,31.108,0)"
           id="path46" /><path
           d="M 220,441 V 0 m 0,315 95,95 63,31 h 94 l 64,-31 31,-95 V 0"
           style="stroke:#0000ff;stroke-width:28.3464;stroke-dasharray:none"
           transform="matrix(0.00705556,0,0,-0.00705556,35.3272,0)"
           id="path47" /><path
           d="M 252,662 V 126 L 284,31.5 346,0 h 64 M 158,441 h 220"
           style="stroke:#0000ff;stroke-width:28.3464;stroke-dasharray:none"
           transform="matrix(0.00705556,0,0,-0.00705556,39.5464,0)"
           id="path48" /><path
           d="m 220,504 v 32 l 32,62 32,32 62,32 h 126 l 64,-32 31,-32 31,-62 V 472 L 567,410 504,315 189,0 h 441"
           style="stroke:#0000ff;stroke-width:28.3464;stroke-dasharray:none"
           transform="matrix(0.00705556,0,0,-0.00705556,44.8804,0)"
           id="path49" /><path
           d="M 504,662 189,220 H 662 M 504,662 V 0"
           style="stroke:#0000ff;stroke-width:28.3464;stroke-dasharray:none"
           transform="matrix(0.00705556,0,0,-0.00705556,49.3254,0)"
           id="path50" /><path
           d="m 346,662 -94,-32 -32,-63 v -63 l 32,-63 63,-31 126,-32 95,-32 62,-62 32,-64 V 126 L 598,63 567,31.5 472,0 H 346 L 252,31.5 220,63 189,126 v 94 l 31,64 64,62 94,32 126,32 63,31 31,63 v 63 l -31,63 -95,32 H 346"
           style="stroke:#0000ff;stroke-width:28.3464;stroke-dasharray:none"
           transform="matrix(0.00705556,0,0,-0.00705556,53.7704,0)"
           id="path51" /><path
           d="M 158,441 346,0 M 536,441 346,0"
           style="stroke:#0000ff;stroke-width:28.3464;stroke-dasharray:none"
           transform="matrix(0.00705556,0,0,-0.00705556,60.8824,0)"
           id="path52" /><path
           d="m 220,504 v 32 l 32,62 32,32 62,32 h 126 l 64,-32 31,-32 31,-62 V 472 L 567,410 504,315 189,0 h 441"
           style="stroke:#0000ff;stroke-width:28.3464;stroke-dasharray:none"
           transform="matrix(0.00705556,0,0,-0.00705556,64.4384,0)"
           id="path53" /></g></g><g
       inkscape:label="Hershey Text"
       style="fill:none;stroke:#0000ff;stroke-linecap:round;stroke-linejoin:round"
       id="g59"
       transform="matrix(0.52983681,0,0,0.52983681,1.1630852,340.526)"><g
         transform="translate(159.514,731.904)"
         id="g58"
         style="stroke:#0000ff"><path
           d="M 220,662 V 0 m 0,315 95,95 63,31 h 94 l 64,-31 31,-95 V 0"
           style="stroke:#0000ff;stroke-width:0.6459in"
           transform="scale(0.00705556,-0.00705556)"
           id="path8" /><path
           d="M 252,662 V 126 L 284,31.5 346,0 h 64 M 158,441 h 220"
           style="stroke:#0000ff;stroke-width:0.6459in"
           transform="matrix(0.00705556,0,0,-0.00705556,4.21922,0)"
           id="path12" /><path
           d="M 252,662 V 126 L 284,31.5 346,0 h 64 M 158,441 h 220"
           style="stroke:#0000ff;stroke-width:0.6459in"
           transform="matrix(0.00705556,0,0,-0.00705556,6.88623,0)"
           id="path16-0" /><path
           d="m 220,441 v -661 m 0,566 64,64 62,31 h 95 l 63,-31 63,-64 31,-94 V 189 L 567,94.5 504,31.5 441,0 h -95 l -62,31.5 -64,63"
           style="stroke:#0000ff;stroke-width:0.6459in"
           transform="matrix(0.00705556,0,0,-0.00705556,9.55323,0)"
           id="path19-6" /><path
           d="m 536,346 -32,64 -94,31 h -95 l -95,-31 -31,-64 31,-62 64,-32 157,-32 63,-31 32,-63 V 94.5 L 504,31.5 410,0 h -95 l -95,31.5 -31,63"
           style="stroke:#0000ff;stroke-width:0.6459in"
           transform="matrix(0.00705556,0,0,-0.00705556,13.7725,0)"
           id="path20" /><path
           d="m 220,378 -31,-32 31,-31 32,31 -32,32 m 0,-220 -31,-32 31,-31.5 32,31.5 -32,32"
           style="stroke:#0000ff;stroke-width:0.6459in"
           transform="matrix(0.00705556,0,0,-0.00705556,17.5542,0)"
           id="path23-8" /><path
           d="M 724,788 158,-220"
           style="stroke:#0000ff;stroke-width:0.6459in"
           transform="matrix(0.00705556,0,0,-0.00705556,19.3322,0)"
           id="path25-8" /><path
           d="M 724,788 158,-220"
           style="stroke:#0000ff;stroke-width:0.6459in"
           transform="matrix(0.00705556,0,0,-0.00705556,24.2217,0)"
           id="path27" /><path
           d="M 220,662 V 0 M 536,441 220,126 M 346,252 567,0"
           style="stroke:#0000ff;stroke-width:0.6459in"
           transform="matrix(0.00705556,0,0,-0.00705556,29.1112,0)"
           id="path29-14" /><path
           d="M 567,441 V 0 m 0,346 -63,64 -63,31 H 346 L 284,410 220,346 189,252 V 189 L 220,94.5 284,31.5 346,0 h 95 l 63,31.5 63,63"
           style="stroke:#0000ff;stroke-width:0.6459in"
           transform="matrix(0.00705556,0,0,-0.00705556,32.893,0)"
           id="path31" /><path
           d="M 252,662 V 126 L 284,31.5 346,0 h 64 M 158,441 h 220"
           style="stroke:#0000ff;stroke-width:0.6459in"
           transform="matrix(0.00705556,0,0,-0.00705556,37.1122,0)"
           id="path32" /><path
           d="M 346,441 284,410 220,346 189,252 V 189 L 220,94.5 284,31.5 346,0 h 95 l 63,31.5 63,63 31,94.5 v 63 l -31,94 -63,64 -63,31 h -95"
           style="stroke:#0000ff;stroke-width:0.6459in"
           transform="matrix(0.00705556,0,0,-0.00705556,39.7792,0)"
           id="path33-87" /><path
           d="M 220,284 H 788"
           style="stroke:#0000ff;stroke-width:0.6459in"
           transform="matrix(0.00705556,0,0,-0.00705556,43.9985,0)"
           id="path34" /><path
           d="M 220,441 V 0 m 0,315 95,95 63,31 h 94 l 64,-31 31,-95 V 0 m 0,315 95,95 62,31 h 95 l 63,-31 32,-95 V 0"
           style="stroke:#0000ff;stroke-width:0.6459in"
           transform="matrix(0.00705556,0,0,-0.00705556,49.777,0)"
           id="path35" /><path
           d="m 189,662 31,-32 32,32 -32,31 -31,-31 M 220,441 V 0"
           style="stroke:#0000ff;stroke-width:0.6459in"
           transform="matrix(0.00705556,0,0,-0.00705556,56.4445,0)"
           id="path36" /><path
           d="M 220,441 V 0 m 0,315 95,95 63,31 h 94 l 64,-31 31,-95 V 0"
           style="stroke:#0000ff;stroke-width:0.6459in"
           transform="matrix(0.00705556,0,0,-0.00705556,58.2225,0)"
           id="path37-1" /><path
           d="m 189,662 31,-32 32,32 -32,31 -31,-31 M 220,441 V 0"
           style="stroke:#0000ff;stroke-width:0.6459in"
           transform="matrix(0.00705556,0,0,-0.00705556,62.4417,0)"
           id="path38" /><path
           d="M 567,662 V 0 m 0,346 -63,64 -63,31 H 346 L 284,410 220,346 189,252 V 189 L 220,94.5 284,31.5 346,0 h 95 l 63,31.5 63,63"
           style="stroke:#0000ff;stroke-width:0.6459in"
           transform="matrix(0.00705556,0,0,-0.00705556,64.2197,0)"
           id="path39-5" /><path
           d="M 220,284 H 788"
           style="stroke:#0000ff;stroke-width:0.6459in"
           transform="matrix(0.00705556,0,0,-0.00705556,68.4389,0)"
           id="path40-5" /><path
           d="M 410,662 H 346 L 284,630 252,536 V 0 m -94,441 h 220"
           style="stroke:#0000ff;stroke-width:0.6459in"
           transform="matrix(0.00705556,0,0,-0.00705556,74.2174,0)"
           id="path41-1" /><path
           d="M 220,441 V 0 m 0,252 32,94 63,64 63,31 h 94"
           style="stroke:#0000ff;stroke-width:0.6459in"
           transform="matrix(0.00705556,0,0,-0.00705556,76.8844,0)"
           id="path42-3" /><path
           d="m 220,158 -31,-32 31,-31.5 32,31.5 -32,32"
           style="stroke:#0000ff;stroke-width:0.6459in"
           transform="matrix(0.00705556,0,0,-0.00705556,79.7772,0)"
           id="path43-7" /><path
           d="M 410,662 H 346 L 284,630 252,536 V 0 m -94,441 h 220"
           style="stroke:#0000ff;stroke-width:0.6459in"
           transform="matrix(0.00705556,0,0,-0.00705556,81.5552,0)"
           id="path44-6" /><path
           d="M 346,441 284,410 220,346 189,252 V 189 L 220,94.5 284,31.5 346,0 h 95 l 63,31.5 63,63 31,94.5 v 63 l -31,94 -63,64 -63,31 h -95"
           style="stroke:#0000ff;stroke-width:0.6459in"
           transform="matrix(0.00705556,0,0,-0.00705556,84.2222,0)"
           id="path45-0" /><path
           d="M 220,441 V 0 m 0,252 32,94 63,64 63,31 h 94"
           style="stroke:#0000ff;stroke-width:0.6459in"
           transform="matrix(0.00705556,0,0,-0.00705556,88.4414,0)"
           id="path46-9" /><path
           d="M 220,441 V 126 L 252,31.5 315,0 h 95 l 62,31.5 95,94.5 m 0,315 V 0"
           style="stroke:#0000ff;stroke-width:0.6459in"
           transform="matrix(0.00705556,0,0,-0.00705556,91.3342,0)"
           id="path47-2" /><path
           d="M 220,441 V 0 m 0,315 95,95 63,31 h 94 l 64,-31 31,-95 V 0 m 0,315 95,95 62,31 h 95 l 63,-31 32,-95 V 0"
           style="stroke:#0000ff;stroke-width:0.6459in"
           transform="matrix(0.00705556,0,0,-0.00705556,95.5534,0)"
           id="path48-8" /><path
           d="M 567,441 V 0 m 0,346 -63,64 -63,31 H 346 L 284,410 220,346 189,252 V 189 L 220,94.5 284,31.5 346,0 h 95 l 63,31.5 63,63"
           style="stroke:#0000ff;stroke-width:0.6459in"
           transform="matrix(0.00705556,0,0,-0.00705556,102.221,0)"
           id="path49-1" /><path
           d="m 567,346 -63,64 -63,31 H 346 L 284,410 220,346 189,252 V 189 L 220,94.5 284,31.5 346,0 h 95 l 63,31.5 63,63"
           style="stroke:#0000ff;stroke-width:0.6459in"
           transform="matrix(0.00705556,0,0,-0.00705556,106.44,0)"
           id="path50-3" /><path
           d="M 252,662 V 126 L 284,31.5 346,0 h 64 M 158,441 h 220"
           style="stroke:#0000ff;stroke-width:0.6459in"
           transform="matrix(0.00705556,0,0,-0.00705556,110.441,0)"
           id="path51-7" /><path
           d="m 189,662 31,-32 32,32 -32,31 -31,-31 M 220,441 V 0"
           style="stroke:#0000ff;stroke-width:0.6459in"
           transform="matrix(0.00705556,0,0,-0.00705556,113.108,0)"
           id="path52-7" /><path
           d="M 410,662 H 346 L 284,630 252,536 V 0 m -94,441 h 220"
           style="stroke:#0000ff;stroke-width:0.6459in"
           transform="matrix(0.00705556,0,0,-0.00705556,114.886,0)"
           id="path53-9" /><path
           d="m 220,158 -31,-32 31,-31.5 32,31.5 -32,32"
           style="stroke:#0000ff;stroke-width:0.6459in"
           transform="matrix(0.00705556,0,0,-0.00705556,117.553,0)"
           id="path54" /><path
           d="m 567,346 -63,64 -63,31 H 346 L 284,410 220,346 189,252 V 189 L 220,94.5 284,31.5 346,0 h 95 l 63,31.5 63,63"
           style="stroke:#0000ff;stroke-width:0.6459in"
           transform="matrix(0.00705556,0,0,-0.00705556,119.331,0)"
           id="path55" /><path
           d="M 346,441 284,410 220,346 189,252 V 189 L 220,94.5 284,31.5 346,0 h 95 l 63,31.5 63,63 31,94.5 v 63 l -31,94 -63,64 -63,31 h -95"
           style="stroke:#0000ff;stroke-width:0.6459in"
           transform="matrix(0.00705556,0,0,-0.00705556,123.331,0)"
           id="path56" /><path
           d="M 220,441 V 0 m 0,315 95,95 63,31 h 94 l 64,-31 31,-95 V 0 m 0,315 95,95 62,31 h 95 l 63,-31 32,-95 V 0"
           style="stroke:#0000ff;stroke-width:0.6459in"
           transform="matrix(0.00705556,0,0,-0.00705556,127.55,0)"
           id="path57" /><path
           d="M 724,788 158,-220"
           style="stroke:#0000ff;stroke-width:0.6459in"
           transform="matrix(0.00705556,0,0,-0.00705556,134.218,0)"
           id="path58" /></g></g><path
       id="path1-1-9"
       style="fill:none;fill-opacity:0;stroke:#000000;stroke-width:0.2;stroke-linejoin:round"
       d="m 41.000261,346 c -11.01252,0 -21.05447,4.0738 -28.77189,10.76006 l -8.99997,-1.58698 -6.20841,35.21129 c 0.20861,24.12155 19.80944,43.61594 43.98027,43.61594 H 205.00058 c 11.01252,0 21.05446,-4.0738 28.77189,-10.76007 l 8.99997,1.58699 6.2084,-35.21129 C 248.77195,365.49461 229.17124,346 205.00058,346 Z" /><path
       id="path1-1-9-5"
       style="fill:none;fill-opacity:0;stroke:#000000;stroke-width:0.2;stroke-linejoin:round"
       d="m 205.0011,646 c 11.01252,0 21.05447,4.0738 28.77189,10.76006 l 8.99997,-1.58698 6.20841,35.21129 c -0.20861,24.12155 -19.80944,43.61594 -43.98027,43.61594 H 41.00078 c -11.01252,0 -21.05446,-4.0738 -28.77189,-10.76007 l -8.99997,1.58699 -6.2084,-35.21129 C -2.77059,665.49461 16.83012,646 41.00078,646 Z" /><path
       id="path1-1-9-7"
       style="fill:none;fill-opacity:0;stroke:#000000;stroke-width:0.2;stroke-linejoin:round"
       d="m 41.000261,746 c -11.01252,0 -21.05447,4.0738 -28.77189,10.76006 l -8.99997,-1.58698 -6.20841,35.21129 c 0.20861,24.12155 19.80944,43.61594 43.98027,43.61594 H 205.00058 c 11.01252,0 21.05446,-4.0738 28.77189,-10.76006 l 8.99997,1.58699 6.2084,-35.2113 C 248.77195,765.49461 229.17125,746 205.00059,746 Z" /><path
       id="rect1-5-3-5-5"
       style="fill:none;stroke:#000000;stroke-width:0.2;stroke-linejoin:round"
       d="m 50.233788,929.00014 -7.733895,-10e-6 c -21.539038,0 -38.9996901,-17.46115 -38.9996901,-39.0002 0,-2.47665 0.2562604,-4.89089 0.69763,-7.23935 l -5.658569,-0.99786 4.688599,-26.59011 16.8268801,2.96726 c 6.350604,-4.48255 14.080858,-7.13962 22.44515,-7.13962 v 0 h 21.487058 l -3.41395,19.36088 -2.954423,-0.52095 -2.951991,16.74157 2.954423,0.52095 z"
       sodipodi:nodetypes="cssccccsccccccc" /><path
       id="rect1-5-3-5-5-2"
       style="fill:none;stroke:#000000;stroke-width:0.2;stroke-linejoin:round"
       d="m 50.233787,529.00015 -7.733895,-10e-6 c -21.539038,0 -38.9996895,-17.46114 -38.9996895,-39.00019 0,-2.47665 0.2562604,-4.8909 0.69763,-7.23935 l -5.658569,-0.99786 4.688599,-26.59011 16.8268795,2.96726 c 6.350604,-4.48255 14.080858,-7.13962 22.44515,-7.13962 v 0 H 63.98695 l -3.41395,19.36088 -2.954423,-0.52095 -2.951991,16.74157 2.954423,0.52095 z"
       sodipodi:nodetypes="cssccccsccccccc" /><path
       id="rect1-5-3-5-5-5"
       style="fill:none;stroke:#000000;stroke-width:0.2;stroke-linejoin:round"
       d="m 50.233788,1029.0002 -7.733895,-10e-5 c -21.539038,0 -38.99969,-17.4611 -38.99969,-39.00016 0,-2.47665 0.25626,-4.89089 0.69763,-7.23935 l -5.6585691,-0.99785 4.6885991,-26.59011 16.82688,2.96726 c 6.350604,-4.48255 14.080858,-7.13962 22.44515,-7.13962 v 0 h 21.487058 l -3.41395,19.36087 -2.954423,-0.52095 -2.951991,16.74158 2.954423,0.52094 z"
       sodipodi:nodetypes="cssccccsccccccc" /><path
       id="path5"
       style="fill:none;stroke:#000000;stroke-width:0.2;stroke-linejoin:round"
       d="m 181.92187,929.00013 h 21.57853 c 8.36441,0 16.09502,-2.65693 22.44566,-7.1396 l 16.82585,2.96674 4.6886,-26.58959 -5.65805,-0.99787 c 0.44143,-2.34863 0.69763,-4.76305 0.69763,-7.23987 0,-21.53903 -17.46066,-38.99969 -38.99969,-38.99969 l -7.82536,2e-5 -7.38632,41.8898 2.95443,0.52095 -2.952,16.74157 -2.95442,-0.52095 z"
       sodipodi:nodetypes="csccccsscccccc" /><path
       id="path5-3"
       style="fill:none;stroke:#000000;stroke-width:0.2;stroke-linejoin:round"
       d="m 181.92134,1029.0002 h 21.57853 c 8.36441,0 16.09502,-2.657 22.44566,-7.1396 l 16.82585,2.9667 4.68861,-26.58963 -5.65805,-0.9979 c 0.44143,-2.3486 0.69763,-4.763 0.69763,-7.2398 0,-21.53905 -17.46067,-38.99971 -38.99969,-38.99971 l -7.82536,2e-5 -7.38632,41.88979 2.95443,0.521 -2.952,16.74153 -2.95442,-0.5209 z"
       sodipodi:nodetypes="csccccsscccccc" /><path
       id="path5-8"
       style="fill:none;stroke:#000000;stroke-width:0.2;stroke-linejoin:round"
       d="m 181.92134,529.00013 h 21.57853 c 8.36441,0 16.09502,-2.65693 22.44566,-7.1396 l 16.82585,2.96674 4.68861,-26.58959 -5.65805,-0.99787 c 0.44143,-2.34863 0.69763,-4.76305 0.69763,-7.23987 0,-21.53903 -17.46066,-38.99969 -38.99969,-38.99969 l -7.82536,2e-5 -7.38632,41.8898 2.95443,0.52095 -2.952,16.74157 -2.95442,-0.52095 z"
       sodipodi:nodetypes="csccccsscccccc" /></g></svg>
